# Blender 4.3.2
# www.blender.org
mtllib room_escape_new_floor.mtl
g Grid_Mesh
v -3.610276 0.000000 3.610277
v -3.610276 0.000000 -3.610277
v -3.610276 0.000000 -0.364576
v 3.610277 0.000000 1.551554
v -3.421101 -0.189176 3.610277
v -3.610276 -0.189176 3.421101
v -3.554868 -0.189176 3.554868
v -3.570300 -0.096230 3.570300
v -3.610276 -0.094588 3.515689
v -3.515689 -0.094588 3.610277
v -3.610276 -0.189176 -3.421101
v -3.421101 -0.189176 -3.610277
v -3.554868 -0.189176 -3.554868
v -3.570300 -0.096230 -3.570300
v -3.515689 -0.094588 -3.610277
v -3.610276 -0.094588 -3.515689
v 3.421101 -0.189176 3.610277
v 3.610277 0.000000 3.610277
v 3.610277 -0.189176 3.421101
v 3.515689 -0.094588 3.610277
v 3.570300 -0.096230 3.570300
v 3.610277 -0.094588 3.515689
v 3.554868 -0.189176 3.554868
v 3.610277 -0.189176 -3.421101
v 3.610277 0.000000 -3.610277
v 3.421101 -0.189176 -3.610277
v 3.610277 -0.094588 -3.515689
v 3.570300 -0.096230 -3.570300
v 3.515689 -0.094588 -3.610277
v 3.554868 -0.189176 -3.554868
v -3.421101 -0.158842 3.421101
v -3.610276 0.030334 3.421101
v -3.421101 0.030334 3.610277
v -3.554868 -0.103433 3.421101
v -3.530321 -0.078886 3.530322
v -3.554868 0.030334 3.554868
v -3.421101 -0.103433 3.554868
v -3.610276 0.030334 -3.421101
v -3.421101 -0.158842 -3.421101
v -3.421101 0.030334 -3.610277
v -3.554868 -0.103433 -3.421101
v -3.530321 -0.078886 -3.530322
v -3.421101 -0.103433 -3.554868
v -3.554868 0.030334 -3.554868
v 3.421101 -0.158842 3.421101
v 3.421101 0.030334 3.610277
v 3.610277 0.030334 3.421101
v 3.421101 -0.103433 3.554868
v 3.530322 -0.078886 3.530322
v 3.554868 0.030334 3.554868
v 3.554868 -0.103433 3.421101
v 3.610277 0.030334 -3.421101
v 3.421101 0.030334 -3.610277
v 3.421101 -0.158842 -3.421101
v 3.554868 0.030334 -3.554868
v 3.530322 -0.078886 -3.530322
v 3.421101 -0.103433 -3.554868
v 3.554868 -0.103433 -3.421101
v -3.610276 -0.189176 -0.175400
v -3.610276 -0.189176 -0.553752
v -3.610276 -0.055408 -0.309167
v -3.610276 -0.100021 -0.372714
v -3.610276 -0.189176 -0.364576
v -3.610276 -0.094588 -0.459164
v 3.610277 -0.189176 -0.553752
v 3.799453 -0.189176 -0.364576
v 3.610277 0.000000 -0.364576
v 3.665684 -0.189176 -0.419984
v 3.650254 -0.096230 -0.404552
v 3.704865 -0.094588 -0.364576
v 3.610277 -0.094588 -0.459164
v -3.610276 0.030334 -0.553752
v -3.610276 0.030334 -0.175400
v -3.421101 -0.158842 -0.364576
v -3.610276 0.030334 -0.364576
v -3.576503 -0.077545 -0.364576
v -3.554868 -0.103433 -0.269988
v -3.554868 -0.103433 -0.459164
v 3.421101 -0.158842 -0.175400
v 3.799453 0.030334 -0.364576
v 3.610277 0.030334 -0.553752
v 3.610277 -0.103433 -0.309167
v 3.610277 -0.078889 -0.364576
v 3.665684 0.030334 -0.419984
v 3.554868 -0.103433 -0.364576
v -3.610276 0.000000 1.551554
v -3.610276 -0.189176 1.740730
v -3.610276 -0.189176 1.362378
v -3.610276 -0.055408 1.606962
v -3.610276 -0.088091 1.543416
v -3.610276 -0.189176 1.551554
v -3.610276 -0.094588 1.456966
v 3.610277 -0.189176 1.740730
v 3.799453 -0.189176 1.551554
v 3.610277 -0.055408 1.606962
v 3.650253 -0.088091 1.583392
v 3.704865 -0.094588 1.551554
v 3.665684 -0.189176 1.606962
v -3.610276 0.030334 1.362378
v -3.610276 0.030334 1.740730
v -3.421101 -0.158842 1.551554
v -3.610276 0.030334 1.551554
v -3.576503 -0.077545 1.551554
v -3.554868 -0.103433 1.646142
v -3.554868 -0.103433 1.456966
v 3.610277 0.030334 1.740730
v 3.799453 0.030334 1.551554
v 3.421101 -0.158842 1.362378
v 3.665684 0.030334 1.606962
v 3.610277 -0.078889 1.551554
v 3.610277 -0.103433 1.496146
v 3.554868 -0.103433 1.551554
v 5.125922 -0.189176 -0.364576
v 5.315097 -0.189176 -0.175400
v 5.125922 0.000000 -0.175400
v 5.259689 -0.189176 -0.309167
v 5.235142 -0.079955 -0.284621
v 5.259689 -0.055408 -0.175400
v 5.125922 -0.055408 -0.309167
v 5.315097 0.030334 -0.175400
v 5.125922 0.030334 -0.364576
v 5.125922 -0.158842 -0.175400
v 5.259689 0.030334 -0.309167
v 5.235142 -0.078886 -0.284621
v 5.125922 -0.103433 -0.309167
v 5.259689 -0.103433 -0.175400
v 5.315097 -0.189176 1.362378
v 5.125922 -0.189176 1.551554
v 5.125922 0.000000 1.362378
v 5.259689 -0.189176 1.496146
v 5.235142 -0.079955 1.471599
v 5.125922 -0.055408 1.496146
v 5.259689 -0.055408 1.362378
v 5.315097 0.030334 1.362378
v 5.125922 -0.158842 1.362378
v 5.125922 0.030334 1.551554
v 5.259689 -0.103433 1.362378
v 5.235142 -0.078886 1.471599
v 5.125922 -0.103433 1.496146
v 5.259689 0.030334 1.496146
vn -0.0000 -1.0000 -0.0000
vn -1.0000 -0.0000 -0.0000
vn -0.0000 -0.0000 1.0000
vn -0.0000 1.0000 -0.0000
vn 1.0000 -0.0000 -0.0000
vn -0.0000 -0.0000 -1.0000
vn 0.3574 0.3574 -0.8629
vn 0.8629 0.3574 -0.3574
vn 0.7053 0.5012 -0.5012
vn 0.8629 0.3574 0.3574
vn 0.3574 0.3574 0.8629
vn 0.5012 0.5012 0.7053
vn -0.3574 0.3574 -0.8629
vn -0.5012 0.5012 -0.7053
vn -0.8629 0.3574 -0.3574
vn -0.8629 0.3574 0.3574
vn -0.7053 0.5012 0.5012
vn -0.3574 0.3574 0.8629
vn 0.2817 0.8865 -0.3672
vn 0.8865 0.3672 -0.2817
vn 0.3672 0.2817 -0.8865
vn 0.8865 0.2817 0.3672
vn 0.3672 0.8865 0.2817
vn 0.2817 0.3672 0.8865
vn -0.3672 0.8865 -0.2817
vn -0.2817 0.3672 -0.8865
vn -0.8865 0.2818 -0.3672
vn -0.8865 0.3672 0.2817
vn -0.3672 0.2817 0.8865
vn -0.2817 0.8865 0.3672
vn -0.8629 -0.3574 0.3574
vn -0.3574 -0.3574 0.8629
vn -0.5013 -0.5012 0.7053
vn 0.9239 0.3827 -0.0000
vn 0.4593 0.8779 0.1352
vn -0.1667 0.9718 0.1667
vn -0.4668 0.8086 0.3582
vn -0.7701 0.5525 0.3190
vn -0.8629 -0.3574 -0.3574
vn -0.7053 -0.5013 -0.5012
vn -0.3574 -0.3574 -0.8629
vn -0.3582 0.8086 -0.4668
vn -0.3190 0.5525 -0.7701
vn -0.1667 0.9718 -0.1667
vn -0.2817 -0.3672 0.8865
vn -0.8865 -0.2817 0.3672
vn -0.3672 -0.8865 0.2817
vn -0.8865 0.3672 0.2818
vn -0.8865 -0.3672 -0.2818
vn -0.3672 -0.2817 -0.8865
vn -0.2817 -0.8865 -0.3672
vn -0.8865 0.2817 -0.3672
vn 0.3827 0.9239 -0.0000
vn -0.9239 0.3827 -0.0000
vn -0.3827 0.9239 -0.0000
vn -0.0000 0.3827 -0.9239
vn -0.0000 0.9239 -0.3827
vn -0.0000 0.9239 0.3827
vn -0.0000 0.3827 0.9239
vn 0.9239 -0.0000 0.3827
vn 0.3827 -0.0000 0.9239
vn -0.9239 -0.0000 0.3827
vn -0.3827 -0.0000 0.9239
vn -0.3827 -0.0000 -0.9239
vn -0.9239 -0.0000 -0.3827
vn 0.9239 -0.0000 -0.3827
vn 0.3827 -0.0000 -0.9239
vn -0.0379 -0.0379 0.9986
vn -0.1229 -0.1229 0.9848
vn -0.3827 -0.9239 -0.0000
vn -0.9239 -0.3827 -0.0000
vn -0.0000 -0.3827 -0.9239
vn 0.0106 -0.9238 -0.3827
vn 0.5710 0.2258 -0.7893
vn 0.7893 0.2259 -0.5710
vn 0.5012 0.5012 -0.7053
vn 0.7893 0.2259 0.5710
vn 0.5710 0.2258 0.7893
vn 0.7053 0.5012 0.5012
vn -0.5710 0.2258 -0.7893
vn -0.7053 0.5012 -0.5012
vn -0.7893 0.2258 -0.5710
vn -0.7893 0.2258 0.5710
vn -0.5012 0.5012 0.7053
vn -0.5710 0.2258 0.7893
vn 0.3672 0.8865 -0.2817
vn 0.8865 0.2817 -0.3672
vn 0.2817 0.3672 -0.8865
vn 0.8865 0.3672 0.2818
vn 0.2817 0.8865 0.3672
vn 0.3672 0.2817 0.8865
vn -0.2817 0.8865 -0.3672
vn -0.3672 0.2817 -0.8865
vn -0.8865 0.3672 -0.2818
vn -0.8865 0.2817 0.3672
vn -0.2817 0.3672 0.8865
vn -0.3672 0.8865 0.2817
vn -0.7893 -0.2258 0.5710
vn -0.5710 -0.2258 0.7893
vn -0.7053 -0.5013 0.5013
vn 0.9456 0.2960 0.1353
vn 0.9456 0.2960 -0.1352
vn 0.4593 0.8779 -0.1352
vn -0.3754 0.8474 0.3754
vn -0.3190 0.5525 0.7701
vn -0.3582 0.8086 0.4668
vn -0.6415 -0.2657 -0.7196
vn -0.4832 -0.4831 -0.7302
vn -0.5088 -0.2684 -0.8180
vn 0.9456 0.2960 -0.1353
vn -0.7701 0.5525 -0.3190
vn -0.4668 0.8086 -0.3582
vn -0.3754 0.8474 -0.3754
vn -0.3672 -0.2817 0.8865
vn -0.8865 -0.3672 0.2818
vn -0.2817 -0.8865 0.3672
vn -0.8865 -0.2817 -0.3672
vn -0.2817 -0.3672 -0.8865
vn -0.3672 -0.8865 -0.2817
vn -0.0000 -0.3827 0.9239
vn 0.0106 -0.9238 0.3827
vn -0.0379 -0.0379 -0.9986
vn -0.1229 -0.1229 -0.9848
vt 0.000000 1.000000
vt 1.000000 0.550491
vt 0.000000 0.550491
vt 0.000000 0.026200
vt 0.000000 0.258920
vt 0.973800 0.000000
vt 0.026200 0.000000
vt 0.026200 0.000000
vt 0.973800 0.026200
vt 0.026200 0.285120
vt 0.026200 0.026200
vt 0.000000 0.576691
vt 0.000000 0.973800
vt 1.000000 0.524292
vt 1.000000 0.311319
vt 1.000000 0.311319
vt 1.000000 0.285120
vt 1.000000 0.285120
vt 0.959154 0.311320
vt 0.996320 0.524292
vt 0.959154 0.524292
vt 0.026200 1.000000
vt 0.973800 1.000000
vt 0.973800 1.000000
vt 0.000000 0.285120
vt 1.000000 0.000000
vt 0.000000 0.000000
vt 1.000000 0.258920
vt 1.000000 0.026200
vt 1.000000 0.026200
vt 0.026200 0.550491
vt 0.973800 0.973800
vt 0.026200 0.973800
vt 1.000000 0.973800
vt 1.000000 0.576691
vt 1.000000 0.550491
vt 1.000000 0.550491
vt 0.000000 0.311319
vt 0.000000 0.524292
vt 0.000000 0.524292
vt 1.000000 0.311319
vt 0.013100 0.000000
vt 0.000000 0.013100
vt 0.001845 0.001845
vt 0.000000 0.986900
vt 0.013100 1.000000
vt 0.001845 0.998155
vt 0.986900 0.000000
vt 0.998155 0.001845
vt 0.000000 -0.000000
vt 1.000000 0.013100
vt 1.000000 0.986900
vt 1.000000 1.000000
vt 0.998155 0.998155
vt 0.986900 1.000000
vt 0.003691 0.003691
vt 0.026200 0.000000
vt 0.000000 0.026200
vt 0.000000 0.026200
vt 0.003691 0.996309
vt 0.026200 1.000000
vt 0.026200 1.000000
vt 0.996309 0.003691
vt 1.000000 0.026200
vt 0.973800 0.000000
vt 1.000000 0.973800
vt 0.996309 0.996309
vt 0.973800 1.000000
vt 0.000000 0.550867
vt 0.000000 0.542818
vt 0.000000 0.563591
vt 1.000000 0.563591
vt 1.000000 0.552337
vt 0.000000 0.537392
vt 0.000000 0.550491
vt 1.000000 0.550491
vt 0.000000 0.285120
vt 0.000000 0.285496
vt 0.000000 0.277446
vt 0.000000 0.298220
vt 1.000000 0.277446
vt 1.000000 0.283650
vt 1.000000 0.277446
vt 0.000000 0.272020
vt 0.000611 0.272020
vt 1.000000 0.258920
vt 0.973800 0.311319
vt 1.000000 0.546800
vt 1.000000 0.524292
vt 1.000000 0.524292
vt 1.000000 0.546800
vt 1.000000 0.288811
vt 1.000000 0.285120
vt 0.996319 0.311319
vt 1.000000 0.311319
vt 0.013100 1.000000
vt 0.973800 0.524292
vt 0.000000 0.298220
vt 0.000000 0.013100
vt 0.000000 0.277446
vt 1.000000 0.013100
vt 0.000000 0.272020
vt 0.000000 0.026200
vt 1.000000 0.026200
vt 0.013100 0.000000
vt 0.000000 0.986900
vt 1.000000 0.013100
vt 0.000000 0.026200
vt 1.000000 0.026200
s 0
g off
g Grid_wooden
usemtl wooden
f 2/1/1 67/2/1 3/3/1
f 6/4/2 100/5/2 87/5/2
f 17/6/3 33/7/3 5/8/3
f 45/9/4 101/10/4 31/11/4
f 60/12/2 38/13/2 11/13/2
f 114/14/5 134/15/5 127/16/5
f 94/17/3 136/18/3 107/18/3
f 108/19/4 122/20/4 79/21/4
f 12/22/6 53/23/6 26/24/6
f 3/3/1 4/17/1 86/25/1
f 86/25/1 18/26/1 1/27/1
f 93/28/5 47/29/5 19/30/5
f 74/31/4 54/32/4 39/33/4
f 24/34/5 81/35/5 65/35/5
f 80/36/6 113/36/6 66/37/6
f 88/38/2 73/39/2 59/40/2
f 67/2/1 129/41/1 4/18/1
f 7/27/7 10/42/7 5/8/7
f 9/43/8 7/27/8 6/4/8
f 1/27/9 8/44/9 9/27/9
f 13/1/10 16/45/10 11/13/10
f 15/46/11 13/1/11 12/22/11
f 2/1/12 14/47/12 15/27/12
f 20/48/13 23/26/13 17/6/13
f 18/26/14 21/49/14 20/50/14
f 23/26/15 22/51/15 19/30/15
f 27/52/16 30/53/16 24/34/16
f 25/53/17 28/54/17 27/27/17
f 30/53/18 29/55/18 26/24/18
f 31/11/19 35/56/19 37/57/19
f 32/58/20 35/56/20 34/59/20
f 33/7/21 35/56/21 36/27/21
f 38/13/22 42/60/22 44/1/22
f 39/33/23 42/60/23 41/13/23
f 40/61/24 42/60/24 43/62/24
f 45/9/25 49/63/25 51/64/25
f 46/65/26 49/63/26 48/6/26
f 47/29/27 49/63/27 50/26/27
f 52/66/28 56/67/28 58/34/28
f 53/23/29 56/67/29 55/53/29
f 54/32/30 56/67/30 57/68/30
f 3/3/5 62/69/5 64/27/5
f 63/3/5 61/70/5 59/40/5
f 64/71/5 63/3/5 60/12/5
f 68/2/31 71/72/31 65/35/31
f 70/2/32 68/2/32 66/37/32
f 67/2/33 69/73/33 70/27/33
f 75/3/34 78/71/34 72/12/34
f 77/74/34 75/3/34 73/39/34
f 74/31/35 76/75/35 77/74/35
f 82/2/36 85/2/36 79/21/36
f 80/36/37 83/76/37 82/2/37
f 81/35/38 83/76/38 84/2/38
f 86/77/5 90/78/5 92/27/5
f 91/77/5 89/79/5 87/5/5
f 92/80/5 91/77/5 88/38/5
f 95/81/39 98/17/39 93/28/39
f 4/18/40 96/82/40 95/83/40
f 98/17/41 97/18/41 94/17/41
f 102/77/34 105/80/34 99/38/34
f 104/84/34 102/77/34 100/5/34
f 101/10/35 103/77/35 104/85/35
f 106/86/42 110/17/42 112/17/42
f 107/18/43 110/17/43 109/18/43
f 112/17/44 111/17/44 108/87/44
f 113/36/45 117/88/45 119/2/45
f 114/14/46 117/88/46 116/2/46
f 115/89/47 117/88/47 118/89/47
f 120/90/48 124/91/48 126/89/48
f 121/2/29 124/91/29 123/2/29
f 122/20/30 124/91/30 125/2/30
f 127/16/49 131/92/49 133/41/49
f 128/93/50 131/92/50 130/17/50
f 129/41/51 131/92/51 132/18/51
f 134/15/52 138/92/52 140/18/52
f 135/94/25 138/92/25 137/95/25
f 136/18/26 138/92/26 139/17/26
f 11/13/5 64/71/5 60/12/5
f 16/45/5 3/3/5 64/71/5
f 25/53/2 71/72/2 67/2/2
f 71/72/2 24/34/2 65/35/2
f 1/27/6 20/48/6 10/42/6
f 10/42/6 17/6/6 5/8/6
f 26/24/3 15/96/3 12/22/3
f 29/55/3 2/1/3 15/96/3
f 39/33/53 78/71/53 74/31/53
f 41/13/34 72/12/34 78/71/34
f 81/35/54 58/34/54 85/2/54
f 85/2/55 54/32/55 79/97/55
f 46/65/56 37/57/56 33/7/56
f 48/6/57 31/11/57 37/57/57
f 54/32/58 43/62/58 39/33/58
f 57/68/59 40/61/59 43/62/59
f 47/29/60 23/26/60 19/30/60
f 50/26/61 17/6/61 23/26/61
f 32/58/62 7/27/62 36/27/62
f 7/27/63 33/7/63 36/27/63
f 40/61/64 13/1/64 44/1/64
f 13/1/65 38/13/65 44/1/65
f 24/34/66 55/53/66 52/66/66
f 30/53/67 53/23/67 55/53/67
f 59/40/5 92/98/5 88/38/5
f 61/70/5 86/25/5 92/98/5
f 74/31/53 105/80/53 101/10/53
f 77/74/34 99/38/34 105/80/34
f 66/37/68 119/2/68 70/36/68
f 70/36/69 115/89/69 67/2/69
f 81/35/66 68/2/66 65/35/66
f 84/2/67 66/37/67 68/2/67
f 73/39/2 63/3/2 59/40/2
f 75/3/2 60/12/2 63/3/2
f 87/5/5 9/99/5 6/4/5
f 89/100/5 1/27/5 9/99/5
f 18/26/2 95/81/2 22/101/2
f 22/101/2 93/28/2 19/30/2
f 31/11/53 104/102/53 34/103/53
f 34/103/34 100/5/34 32/58/34
f 106/86/54 51/104/54 47/29/54
f 112/17/55 45/9/55 51/104/55
f 107/18/61 98/17/61 94/17/61
f 109/18/60 93/28/60 98/17/60
f 100/5/2 91/77/2 87/5/2
f 102/77/2 88/38/2 91/77/2
f 115/89/70 133/41/70 129/41/70
f 118/89/71 127/16/71 133/41/71
f 120/90/54 137/95/54 134/15/54
f 126/89/55 135/94/55 137/95/55
f 107/18/56 139/17/56 111/17/56
f 111/17/57 135/94/57 108/19/57
f 80/36/59 125/2/59 121/2/59
f 82/2/58 122/20/58 125/2/58
f 94/17/72 132/18/72 128/93/72
f 97/18/73 129/41/73 132/18/73
f 121/2/67 116/2/67 113/36/67
f 123/2/66 114/14/66 116/2/66
f 134/15/60 130/17/60 127/16/60
f 130/17/61 136/18/61 128/93/61
f 2/1/1 25/53/1 67/2/1
f 6/4/2 32/58/2 100/5/2
f 17/6/3 46/65/3 33/7/3
f 45/9/4 108/87/4 101/10/4
f 60/12/2 72/12/2 38/13/2
f 114/14/5 120/90/5 134/15/5
f 94/17/3 128/93/3 136/18/3
f 74/31/4 101/10/4 108/19/4
f 108/19/4 135/94/4 122/20/4
f 79/21/4 74/31/4 108/19/4
f 12/22/6 40/61/6 53/23/6
f 3/3/1 67/2/1 4/17/1
f 86/25/1 4/17/1 18/26/1
f 93/28/5 106/86/5 47/29/5
f 74/31/4 79/97/4 54/32/4
f 24/34/5 52/66/5 81/35/5
f 80/36/6 121/2/6 113/36/6
f 88/38/2 99/38/2 73/39/2
f 67/2/1 115/89/1 129/41/1
f 7/27/74 8/44/74 10/42/74
f 9/43/75 8/44/75 7/27/75
f 1/27/76 10/105/76 8/44/76
f 13/1/77 14/47/77 16/45/77
f 15/46/78 14/47/78 13/1/78
f 2/1/79 16/106/79 14/47/79
f 20/48/80 21/49/80 23/26/80
f 18/26/81 22/107/81 21/49/81
f 23/26/82 21/49/82 22/51/82
f 27/52/83 28/54/83 30/53/83
f 25/53/84 29/55/84 28/54/84
f 30/53/85 28/54/85 29/55/85
f 31/11/86 34/108/86 35/56/86
f 32/58/87 36/27/87 35/56/87
f 33/7/88 37/57/88 35/56/88
f 38/13/89 41/13/89 42/60/89
f 39/33/90 43/62/90 42/60/90
f 40/61/91 44/1/91 42/60/91
f 45/9/92 48/6/92 49/63/92
f 46/65/93 50/26/93 49/63/93
f 47/29/94 51/109/94 49/63/94
f 52/66/95 55/53/95 56/67/95
f 53/23/96 57/68/96 56/67/96
f 54/32/97 58/34/97 56/67/97
f 3/3/5 61/70/5 62/69/5
f 63/3/5 62/69/5 61/70/5
f 64/71/5 62/69/5 63/3/5
f 68/2/98 69/73/98 71/72/98
f 70/2/99 69/73/99 68/2/99
f 67/2/100 71/72/100 69/73/100
f 75/3/101 76/75/101 78/71/101
f 77/74/102 76/75/102 75/3/102
f 74/31/103 78/71/103 76/75/103
f 82/2/104 83/76/104 85/2/104
f 80/36/105 84/2/105 83/76/105
f 81/35/106 85/2/106 83/76/106
f 86/77/5 89/100/5 90/78/5
f 91/77/5 90/78/5 89/79/5
f 92/80/5 90/78/5 91/77/5
f 95/81/107 96/82/107 98/17/107
f 4/18/108 97/18/108 96/82/108
f 98/17/109 96/82/109 97/18/109
f 102/77/101 103/77/101 105/80/101
f 104/84/110 103/77/110 102/77/110
f 101/10/103 105/80/103 103/77/103
f 106/86/111 109/18/111 110/17/111
f 107/18/112 111/17/112 110/17/112
f 112/17/113 110/17/113 111/17/113
f 113/36/114 116/2/114 117/88/114
f 114/14/115 118/89/115 117/88/115
f 115/89/116 119/2/116 117/88/116
f 120/90/95 123/2/95 124/91/95
f 121/2/96 125/2/96 124/91/96
f 122/20/97 126/89/97 124/91/97
f 127/16/117 130/17/117 131/92/117
f 128/93/118 132/18/118 131/92/118
f 129/41/119 133/41/119 131/92/119
f 134/15/94 137/95/94 138/92/94
f 135/94/92 139/17/92 138/92/92
f 136/18/93 140/18/93 138/92/93
f 11/13/5 16/45/5 64/71/5
f 16/45/5 2/1/5 3/3/5
f 25/53/2 27/52/2 71/72/2
f 71/72/2 27/52/2 24/34/2
f 1/27/6 18/26/6 20/48/6
f 10/42/6 20/48/6 17/6/6
f 26/24/3 29/55/3 15/96/3
f 29/55/3 25/53/3 2/1/3
f 39/33/53 41/13/53 78/71/53
f 41/13/34 38/13/34 72/12/34
f 81/35/54 52/66/54 58/34/54
f 85/2/55 58/34/55 54/32/55
f 46/65/56 48/6/56 37/57/56
f 48/6/57 45/9/57 31/11/57
f 54/32/58 57/68/58 43/62/58
f 57/68/59 53/23/59 40/61/59
f 47/29/60 50/26/60 23/26/60
f 50/26/61 46/65/61 17/6/61
f 32/58/62 6/4/62 7/27/62
f 7/27/63 5/8/63 33/7/63
f 40/61/64 12/22/64 13/1/64
f 13/1/65 11/13/65 38/13/65
f 24/34/66 30/53/66 55/53/66
f 30/53/67 26/24/67 53/23/67
f 59/40/5 61/70/5 92/98/5
f 61/70/5 3/3/5 86/25/5
f 74/31/53 77/74/53 105/80/53
f 77/74/34 73/39/34 99/38/34
f 66/37/120 113/36/120 119/2/120
f 70/36/121 119/2/121 115/89/121
f 81/35/66 84/2/66 68/2/66
f 84/2/67 80/36/67 66/37/67
f 73/39/2 75/3/2 63/3/2
f 75/3/2 72/12/2 60/12/2
f 87/5/5 89/100/5 9/99/5
f 89/100/5 86/77/5 1/27/5
f 18/26/2 4/17/2 95/81/2
f 22/101/2 95/81/2 93/28/2
f 31/11/53 101/10/53 104/102/53
f 34/103/34 104/102/34 100/5/34
f 106/86/54 112/17/54 51/104/54
f 112/17/55 108/87/55 45/9/55
f 107/18/61 109/18/61 98/17/61
f 109/18/60 106/86/60 93/28/60
f 100/5/2 102/77/2 91/77/2
f 102/77/2 99/38/2 88/38/2
f 115/89/70 118/89/70 133/41/70
f 118/89/71 114/14/71 127/16/71
f 120/90/54 126/89/54 137/95/54
f 126/89/55 122/20/55 135/94/55
f 107/18/56 136/18/56 139/17/56
f 111/17/57 139/17/57 135/94/57
f 80/36/59 82/2/59 125/2/59
f 82/2/58 79/21/58 122/20/58
f 94/17/122 97/18/122 132/18/122
f 97/18/123 4/18/123 129/41/123
f 121/2/67 123/2/67 116/2/67
f 123/2/66 120/90/66 114/14/66
f 134/15/60 140/18/60 130/17/60
f 130/17/61 140/18/61 136/18/61
