# Blender 4.3.2
# www.blender.org
mtllib room_escape_new_mihuang.mtl
g 立方体_Mesh
v 3.467897 0.001994 -3.583916
v 3.637033 0.001994 -3.583916
v 3.457984 -0.009552 -3.395110
v 3.457984 -0.009552 -3.577850
v -1.061532 3.737345 -3.395110
v -1.061532 3.737345 -3.577850
v 2.062037 3.737345 -3.395110
v 2.062037 3.737345 -3.577850
v -1.061532 1.442112 -3.395110
v -1.061532 1.442112 -3.577850
v 2.062037 1.442112 -3.395110
v 2.062037 1.442112 -3.577850
v -1.061533 1.576465 -3.395110
v -1.061533 2.858541 -3.577850
v 3.637033 3.672091 0.613775
v 3.467897 3.672162 0.613775
v 3.637033 3.654500 0.803172
v 3.467897 3.654571 0.803172
v 3.637033 3.654500 0.424375
v 3.467897 3.654571 0.424375
v 3.637033 3.602403 0.985293
v 3.467897 3.602474 0.985293
v 3.637033 3.602403 0.242255
v 3.467897 3.602473 0.242255
v 3.637033 3.517802 1.153137
v 3.467897 3.517873 1.153137
v 3.637033 3.517802 0.074411
v 3.467897 3.517873 0.074411
v 3.637033 3.403949 1.300253
v 3.467897 3.404020 1.300253
v 3.637033 3.403948 -0.072705
v 3.467897 3.404019 -0.072705
v 3.637033 3.265218 1.420988
v 3.467897 3.265289 1.420988
v 3.637033 3.265217 -0.193440
v 3.467897 3.265288 -0.193440
v 3.637033 3.106940 -0.283154
v 3.467897 3.107011 -0.283154
v 3.637033 3.106941 1.510703
v 3.467897 3.107011 1.510703
v 3.637033 2.935199 -0.338400
v 3.467897 2.935270 -0.338400
v 3.637033 2.935200 1.565949
v 3.467897 2.935271 1.565949
v 3.637033 2.756595 1.584603
v 3.467897 2.756666 1.584603
v 3.637033 2.756595 -0.357054
v 3.467897 2.756665 -0.357054
v 3.637033 0.001994 1.570865
v 3.467897 0.001994 1.570864
v 3.637033 0.001994 -0.343315
v 3.467897 0.001994 -0.343315
v 3.637033 1.379295 1.577734
v 3.467897 1.379330 1.577734
v 3.637033 0.717131 1.574431
v 3.467897 0.717150 1.574431
v 3.467897 0.001994 2.568863
v 3.637033 0.001994 2.568863
v 3.552465 0.001994 -3.583916
v 3.552465 0.001994 3.635753
v 3.552465 0.001994 1.570864
v 3.552465 0.001994 -0.343315
v 3.552465 0.001994 2.568863
v 3.510181 0.001994 -3.583916
v 3.510181 0.001994 1.570864
v 3.510181 0.001994 -0.343315
v 3.510181 0.001994 2.568863
v 3.485394 0.001994 3.635753
v 3.467897 0.001994 3.606703
v 3.473022 0.001994 3.627244
v 3.485394 4.414218 3.635753
v 3.485394 4.456984 3.606703
v 3.467897 4.414218 3.606703
v 3.485394 4.444458 3.627244
v 3.475292 4.438909 3.623475
v 3.473022 4.444458 3.606703
v 3.473022 4.414218 3.627244
v 3.485394 4.456984 -3.554865
v 3.467897 4.414218 -3.583916
v 3.473022 4.444458 -3.575407
v 3.637033 0.001994 3.606703
v 3.619536 0.001994 3.635753
v 3.631908 0.001994 3.627244
v 3.619536 4.456984 3.606703
v 3.619536 4.414218 3.635753
v 3.637033 4.414218 3.606703
v 3.619536 4.444458 3.627244
v 3.629638 4.438909 3.623475
v 3.631908 4.414218 3.627244
v 3.631908 4.444458 3.606703
v 3.619536 4.456984 -3.554865
v 3.637033 4.414218 -3.583916
v 3.631908 4.444458 -3.575407
v -3.542284 -0.009552 -3.395110
v -3.560766 0.033213 -3.424160
v -3.555352 0.002973 -3.403619
v -3.542322 4.401793 -3.395110
v -3.543268 4.444559 -3.424160
v -3.560766 4.401793 -3.424160
v -3.542795 4.432034 -3.403619
v -3.553170 4.426484 -3.407388
v -3.555837 4.432034 -3.424160
v -3.555167 4.401793 -3.403619
v -3.560766 0.033213 -3.548799
v -3.542167 -0.009552 -3.577850
v -3.555318 0.002973 -3.569341
v -3.543268 4.444559 -3.548799
v -3.541963 4.432626 -3.577850
v -3.560766 4.401793 -3.548799
v -3.542374 4.440930 -3.569558
v -3.553047 4.432905 -3.565573
v -3.555273 4.416723 -3.569309
v -3.555641 4.432033 -3.548799
v 3.457984 4.444559 -3.424160
v 3.373571 4.401793 -3.395110
v 3.457984 4.401793 -3.395110
v 3.433260 4.432034 -3.403618
v 3.457984 4.431440 -3.577850
v 3.457984 4.444559 -3.548799
v 3.457984 4.440717 -3.569341
v 3.552465 4.414218 -3.583916
v 3.534968 4.456984 -3.554865
v 3.569962 4.456984 -3.554865
v 3.543716 4.444458 -3.575407
v 3.552465 4.449348 -3.571432
v 3.552465 4.456984 -3.554865
v 3.561214 4.444458 -3.575407
v 3.569962 4.456984 3.606703
v 3.534968 4.456984 3.606703
v 3.552465 4.414218 3.635753
v 3.552465 4.456984 3.606703
v 3.552465 4.449348 3.623269
v 3.543716 4.444458 3.627244
v 3.561214 4.444458 3.627244
v 3.492684 4.414218 3.635753
v 3.527678 4.414218 3.635753
v 3.510181 4.456984 3.606703
v 3.510181 4.414218 3.635753
v 3.510181 4.438605 3.630567
v 3.518929 4.444458 3.627244
v 3.501432 4.444458 3.627244
v 3.510181 4.414218 -3.583916
v 3.510181 4.456984 -3.554865
v 3.510181 4.444458 -3.575407
v 3.527678 0.001994 3.635753
v 3.492684 0.001994 3.635753
v 3.510181 0.001994 3.606703
v 3.510181 0.001994 3.635753
vn -0.0000 -0.0000 1.0000
vn -0.0000 -1.0000 -0.0000
vn -0.0000 1.0000 -0.0000
vn -0.0000 -0.0000 -1.0000
vn -1.0000 -0.0000 -0.0000
vn 1.0000 -0.0000 -0.0000
vn -0.5579 0.1751 0.8112
vn -0.5527 0.7115 0.4339
vn -0.9688 0.1642 0.1855
vn 0.6759 0.6676 0.3124
vn 0.4529 0.2415 0.8582
vn 0.9626 0.1252 0.2402
vn -0.5442 0.1695 0.8216
vn -0.5427 0.7115 0.4463
vn -0.9659 0.1574 0.2056
vn -0.7095 0.7009 -0.0733
vn -0.6189 0.5395 -0.5710
vn -0.9761 0.1654 -0.1410
vn 0.3735 0.5213 0.7673
vn -0.0000 0.2709 0.9626
vn -0.2343 0.3256 -0.9160
vn -0.0000 0.8538 -0.5206
vn -0.0000 0.8538 0.5206
vn 0.2343 0.3255 0.9160
vn -0.2859 0.7592 0.5847
vn -0.5667 -0.0000 0.8240
vn -0.9703 -0.0000 0.2421
vn -0.7114 0.7027 -0.0000
vn -0.9859 0.1671 -0.0000
vn -0.0000 0.2709 -0.9626
vn 0.7114 0.7027 -0.0000
vn 0.9859 0.1671 -0.0000
vn 0.5667 -0.0000 0.8240
vn 0.9703 -0.0000 0.2421
vn -0.6897 -0.7241 -0.0001
vn -0.9842 -0.1773 -0.0000
vn -0.5456 -0.0000 0.8380
vn -0.9670 -0.0000 0.2549
vn -0.7059 0.7083 -0.0011
vn -0.9870 0.1609 -0.0000
vn -0.5401 -0.0000 -0.8416
vn -0.9660 -0.0000 -0.2587
vn -0.0000 0.9851 -0.1722
vn -0.0000 0.7066 -0.7076
vn -0.4529 0.2415 0.8582
vn -0.6759 0.6676 0.3124
vn -0.9626 0.1252 0.2402
vn 0.5527 0.7115 0.4339
vn 0.5579 0.1751 0.8112
vn 0.9688 0.1642 0.1855
vn -0.4411 0.2367 0.8657
vn -0.6670 0.6692 0.3275
vn -0.9581 0.1174 0.2612
vn -0.6307 0.7593 -0.1599
vn -0.7161 0.2491 -0.6521
vn -0.9756 0.1670 -0.1424
vn 0.2343 0.3255 -0.9161
vn -0.3025 0.8656 -0.3990
vn 0.3025 0.8656 -0.3990
vn 0.3025 0.8656 0.3989
vn -0.3026 0.8656 0.3990
vn -0.2342 0.3256 0.9160
vn -0.2263 0.2026 0.9528
vn 0.2263 0.2026 0.9527
vn 0.2859 0.7592 0.5847
vn -0.6918 -0.7221 -0.0004
vn -0.9843 -0.1763 -0.0002
vn -0.5522 -0.0000 0.8337
vn -0.9648 -0.0000 0.2629
vn -0.7114 0.7028 -0.0000
vn -0.9859 0.1671 -0.0015
vn -0.5432 -0.0000 -0.8396
vn -0.9666 -0.0000 -0.2564
vn -0.0000 0.9830 -0.1839
vn 0.0001 0.6760 -0.7369
vt 0.622600 0.963363
vt 0.375000 0.974137
vt 0.375000 0.963363
vt 0.125662 0.500000
vt 0.375000 0.750000
vt 0.125658 0.750000
vt 0.724137 0.501006
vt 0.650863 0.748994
vt 0.650863 0.501006
vt 0.849137 0.501006
vt 0.812500 0.748994
vt 0.812500 0.501006
vt 0.375000 0.500000
vt 0.250000 0.612214
vt 0.250000 0.500000
vt 0.622600 0.250000
vt 0.375000 0.312500
vt 0.375000 0.250000
vt 0.456479 0.799722
vt 0.375000 0.999342
vt 0.585306 0.339020
vt 0.624330 0.250670
vt 0.624264 0.500000
vt 0.775863 0.501006
vt 0.775863 0.748994
vt 0.585306 0.910980
vt 0.622600 0.753007
vt 0.622600 0.999343
vt 0.622600 0.039743
vt 0.377400 0.210257
vt 0.377400 0.039743
vt 0.375000 0.250662
vt 0.456479 0.339020
vt 0.874377 0.539743
vt 0.625000 0.710257
vt 0.625000 0.539743
vt 0.622600 0.750000
vt 0.622600 0.748994
vt 0.579967 0.651914
vt 0.580954 0.645356
vt 0.375000 0.678498
vt 0.250000 0.713056
vt 0.250000 0.678498
vt 0.187500 0.713056
vt 0.187500 0.678498
vt 0.622600 0.375000
vt 0.375000 0.375000
vt 0.187500 0.612214
vt 0.187500 0.500000
vt 0.375000 0.713056
vt 0.367425 0.749705
vt 0.250000 0.750000
vt 0.622600 0.875000
vt 0.375000 0.911637
vt 0.375000 0.875000
vt 0.622600 0.775863
vt 0.375000 0.775863
vt 0.125000 0.612214
vt 0.125000 0.500000
vt 0.622600 0.001006
vt 0.580958 0.104644
vt 0.579971 0.098086
vt 0.125000 0.713056
vt 0.125000 0.678498
vt 0.622600 0.312500
vt 0.213363 0.750000
vt 0.187500 0.748994
vt 0.622600 0.974137
vt 0.625000 0.989069
vt 0.622600 1.000000
vt 0.849137 0.748994
vt 0.875000 0.749575
vt 0.849137 0.750000
vt 0.623986 0.000000
vt 0.625000 0.001006
vt 0.628306 0.749858
vt 0.625000 0.748994
vt 0.625000 0.775863
vt 0.622600 0.750000
vt 0.625000 0.999729
vt 0.622600 1.000000
vt 0.874377 0.710257
vt 0.875000 0.733203
vt 0.874360 0.750000
vt 0.623986 0.000000
vt 0.625000 0.039743
vt 0.874725 0.500000
vt 0.875000 0.539743
vt 0.624330 0.250670
vt 0.624346 0.250000
vt 0.625000 0.250655
vt 0.625000 0.210257
vt 0.623438 0.250000
vt 0.622600 0.210257
vt 0.625000 0.750000
vt 0.624297 0.750881
vt 0.622600 0.750000
vt 0.622600 0.753007
vt 0.622600 0.375000
vt 0.625000 0.375000
vt 0.625000 0.387932
vt 0.750000 0.501006
vt 0.762931 0.500000
vt 0.737068 0.500000
vt 0.750000 0.748994
vt 0.737068 0.750000
vt 0.724137 0.748994
vt 0.762932 0.750000
vt 0.750000 0.748994
vt 0.622600 0.875000
vt 0.625000 0.875000
vt 0.625000 0.887932
vt 0.622600 0.937500
vt 0.625000 0.950431
vt 0.625000 0.924569
vt 0.622600 0.937500
vt 0.622600 0.911637
vt 0.812500 0.750000
vt 0.799569 0.750000
vt 0.187500 0.750000
vt 0.161637 0.750000
vt 0.375000 1.000000
vt 0.622600 0.000000
vt 0.375000 0.001006
vt 0.375000 0.000000
vt 0.875000 0.748994
vt 0.625000 0.249705
vt 0.625000 0.387932
vt 0.622600 0.500000
vt 0.625000 0.748994
vt 0.625000 0.500295
vt 0.622600 0.500000
vt 0.622600 0.750000
vt 0.825431 0.750000
vt 0.625000 0.974137
vt 0.125000 0.738360
vt 0.125000 0.511640
vt 0.375000 0.238360
vt 0.375703 1.000000
vt 0.375000 0.999342
vt 0.622600 0.000000
vt 0.375703 0.000000
vt 0.875000 0.710257
vt 0.874345 0.500000
vt 0.625000 0.500000
vt 0.625000 0.250655
vt 0.625881 0.750000
vt 0.625000 0.999360
vt 0.625000 0.750881
vt 0.812500 0.500000
vt 0.625000 0.362068
vt 0.625000 0.312500
vt 0.650863 0.750000
vt 0.625000 0.862068
vt 0.799569 0.750000
vt 0.625000 0.887932
vt 0.867425 0.500000
vt 0.625000 0.257575
vt 0.622600 0.312500
vt 0.375000 0.937500
vt 0.132575 0.749705
vt 0.375000 0.612214
vt 0.585306 0.799722
vt 0.456479 0.910980
vt 0.464020 0.910980
vt 0.456479 0.450278
vt 0.585306 0.450278
vt 0.535980 0.339020
vt 0.624784 0.511640
vt 0.625000 0.710257
vt 0.375000 0.748994
vt 0.415131 0.678621
vt 0.452290 0.678736
vt 0.529580 0.611739
vt 0.539602 0.612385
vt 0.529580 0.678974
vt 0.549240 0.614298
vt 0.558122 0.617404
vt 0.539602 0.678328
vt 0.549240 0.676415
vt 0.565907 0.621585
vt 0.572296 0.626679
vt 0.558122 0.673308
vt 0.565907 0.669127
vt 0.577044 0.632491
vt 0.579967 0.638798
vt 0.572296 0.664033
vt 0.577044 0.658221
vt 0.349137 0.750000
vt 0.375000 0.036944
vt 0.622600 0.250000
vt 0.375000 0.137786
vt 0.529583 0.138261
vt 0.375000 0.071502
vt 0.415132 0.071379
vt 0.539606 0.137615
vt 0.549244 0.135702
vt 0.452292 0.071264
vt 0.529584 0.071026
vt 0.558126 0.132596
vt 0.565911 0.128415
vt 0.539606 0.071672
vt 0.549244 0.073585
vt 0.572300 0.123321
vt 0.577048 0.117509
vt 0.558126 0.076692
vt 0.565911 0.080873
vt 0.579971 0.111202
vt 0.572300 0.085967
vt 0.577048 0.091779
vt 0.623438 0.250000
vt 0.625000 0.233204
vt 0.750000 0.500432
vt 0.750000 0.500000
vt 0.750000 0.749568
vt 0.750000 0.750000
vt 0.623969 0.937500
vt 0.625000 0.937500
vt 0.875000 0.500295
vt 0.632575 0.500000
vt 0.625000 0.492425
vt 0.375000 0.011641
vt 0.375703 0.250000
vt 0.125000 0.748994
vt 0.150863 0.750000
s 0
g off
g 立方体_mihuangse
usemtl mihuangse
f 135/1/1 68/2/1 146/3/1
f 105/4/2 3/5/2 94/6/2
f 123/7/3 84/8/3 91/9/3
f 78/10/3 137/11/3 143/12/3
f 2/13/2 62/14/2 59/15/2
f 79/16/4 64/17/4 1/18/4
f 3/5/1 11/19/1 94/20/1
f 6/21/4 108/22/4 118/23/4
f 122/24/3 137/11/3 129/25/3
f 5/26/1 115/27/1 97/28/1
f 99/29/5 104/30/5 95/31/5
f 105/32/4 10/33/4 4/13/4
f 107/34/3 114/35/3 119/36/3
f 118/23/6 119/36/6 116/37/6
f 86/38/6 17/39/6 15/40/6
f 49/41/2 63/42/2 61/43/2
f 61/43/2 67/44/2 65/45/2
f 121/46/4 2/13/4 59/47/4
f 59/15/2 66/48/2 64/49/2
f 58/50/2 83/51/2 60/52/2
f 130/53/1 145/54/1 60/55/1
f 85/56/1 60/55/1 82/57/1
f 64/49/2 52/58/2 1/59/2
f 73/60/5 16/61/5 18/62/5
f 65/45/2 57/63/2 50/64/2
f 142/65/4 59/47/4 64/17/4
f 63/42/2 145/66/2 147/67/2
f 71/68/7 75/69/7 77/70/7
f 72/71/8 75/72/8 74/73/8
f 73/60/9 75/74/9 76/75/9
f 84/8/10 88/76/10 90/77/10
f 85/56/11 88/76/11 87/78/11
f 86/38/12 88/76/12 89/79/12
f 97/28/13 101/80/13 103/81/13
f 98/82/14 101/83/14 100/84/14
f 99/29/15 101/85/15 102/86/15
f 107/34/16 111/87/16 113/88/16
f 108/89/17 111/90/17 110/91/17
f 113/92/18 112/93/18 109/94/18
f 114/95/19 117/96/19 116/97/19
f 117/96/20 115/98/20 116/97/20
f 121/99/21 125/100/21 127/101/21
f 126/102/22 124/103/22 122/24/22
f 127/104/22 126/102/22 123/7/22
f 131/105/23 134/106/23 128/107/23
f 133/108/23 131/109/23 129/25/23
f 130/110/24 132/111/24 133/112/24
f 138/113/20 141/114/20 135/1/20
f 140/115/20 138/116/20 136/117/20
f 137/11/25 139/118/25 140/119/25
f 145/120/2 148/120/2 147/67/2
f 148/120/2 146/121/2 147/67/2
f 71/68/26 70/122/26 68/2/26
f 77/123/27 69/124/27 70/125/27
f 78/10/28 76/126/28 72/71/28
f 80/127/29 73/60/29 76/75/29
f 91/9/22 127/104/22 123/7/22
f 127/128/30 92/129/30 121/46/30
f 91/9/31 90/130/31 93/131/31
f 93/131/32 86/38/32 92/132/32
f 82/57/33 89/133/33 85/56/33
f 83/5/34 86/38/34 89/133/34
f 72/71/23 141/134/23 137/11/23
f 74/135/20 135/1/20 141/114/20
f 105/4/35 96/136/35 106/137/35
f 106/138/36 95/31/36 104/30/36
f 97/28/37 96/139/37 94/140/37
f 103/141/38 95/31/38 96/142/38
f 98/82/39 113/88/39 102/143/39
f 102/86/40 109/94/40 99/29/40
f 105/32/41 112/93/41 108/89/41
f 112/93/42 104/30/42 109/94/42
f 119/36/43 110/144/43 107/34/43
f 120/145/44 108/22/44 110/146/44
f 98/82/23 117/147/23 114/35/23
f 100/148/20 115/27/20 117/149/20
f 122/24/22 144/150/22 143/12/22
f 124/151/30 142/65/30 144/152/30
f 128/107/23 87/153/23 84/8/23
f 134/154/20 85/56/20 87/78/20
f 129/25/3 126/102/3 122/24/3
f 131/105/3 123/7/3 126/102/3
f 129/25/23 140/155/23 133/108/23
f 133/156/20 136/117/20 130/53/20
f 78/10/22 144/150/22 80/157/22
f 80/158/30 142/159/30 79/16/30
f 146/3/1 138/113/1 135/1/1
f 148/160/1 136/117/1 138/113/1
f 67/44/2 146/121/2 70/161/2
f 135/1/1 71/68/1 68/2/1
f 105/4/2 4/13/2 3/5/2
f 123/7/3 128/107/3 84/8/3
f 78/10/3 72/71/3 137/11/3
f 2/13/2 51/162/2 62/14/2
f 79/16/4 142/159/4 64/17/4
f 3/5/1 116/97/1 115/98/1
f 115/98/1 7/163/1 11/19/1
f 9/164/1 13/165/1 94/20/1
f 3/5/1 115/98/1 11/19/1
f 11/19/1 9/164/1 94/20/1
f 118/23/4 4/13/4 12/166/4
f 118/23/4 12/166/4 8/167/4
f 6/21/4 14/168/4 108/22/4
f 118/23/4 8/167/4 6/21/4
f 122/24/3 143/12/3 137/11/3
f 97/28/1 94/140/1 13/165/1
f 5/26/1 7/163/1 115/27/1
f 97/28/1 13/165/1 5/26/1
f 99/29/5 109/94/5 104/30/5
f 105/32/4 108/89/4 14/168/4
f 10/33/4 12/166/4 4/13/4
f 105/32/4 14/168/4 10/33/4
f 107/34/3 98/82/3 114/35/3
f 3/5/6 4/13/6 118/23/6
f 118/23/6 120/169/6 119/36/6
f 119/36/6 114/170/6 116/37/6
f 116/37/6 3/5/6 118/23/6
f 51/162/6 2/13/6 92/132/6
f 86/38/6 81/171/6 58/50/6
f 58/50/6 49/41/6 55/172/6
f 58/50/6 55/172/6 53/173/6
f 47/174/6 51/162/6 92/132/6
f 41/175/6 47/174/6 92/132/6
f 86/38/6 58/50/6 53/173/6
f 86/38/6 53/173/6 45/176/6
f 37/177/6 41/175/6 92/132/6
f 35/178/6 37/177/6 92/132/6
f 86/38/6 45/176/6 43/179/6
f 86/38/6 43/179/6 39/180/6
f 31/181/6 35/178/6 92/132/6
f 27/182/6 31/181/6 92/132/6
f 86/38/6 39/180/6 33/183/6
f 86/38/6 33/183/6 29/184/6
f 23/185/6 27/182/6 92/132/6
f 19/186/6 23/185/6 92/132/6
f 86/38/6 29/184/6 25/187/6
f 86/38/6 25/187/6 21/188/6
f 19/186/6 92/132/6 86/38/6
f 15/40/6 19/186/6 86/38/6
f 86/38/6 21/188/6 17/39/6
f 49/41/2 58/50/2 63/42/2
f 61/43/2 63/42/2 67/44/2
f 121/46/4 92/129/4 2/13/4
f 59/15/2 62/14/2 66/48/2
f 60/52/2 63/42/2 58/50/2
f 58/50/2 81/171/2 83/51/2
f 83/51/2 82/189/2 60/52/2
f 130/53/1 136/117/1 145/54/1
f 85/56/1 130/110/1 60/55/1
f 64/49/2 66/48/2 52/58/2
f 57/190/5 69/124/5 73/60/5
f 79/191/5 1/18/5 52/192/5
f 79/191/5 52/192/5 48/193/5
f 50/194/5 57/190/5 73/60/5
f 56/195/5 50/194/5 73/60/5
f 79/191/5 48/193/5 42/196/5
f 79/191/5 42/196/5 38/197/5
f 54/198/5 56/195/5 73/60/5
f 46/199/5 54/198/5 73/60/5
f 79/191/5 38/197/5 36/200/5
f 79/191/5 36/200/5 32/201/5
f 44/202/5 46/199/5 73/60/5
f 40/203/5 44/202/5 73/60/5
f 79/191/5 32/201/5 28/204/5
f 79/191/5 28/204/5 24/205/5
f 34/206/5 40/203/5 73/60/5
f 30/207/5 34/206/5 73/60/5
f 79/191/5 24/205/5 20/208/5
f 79/191/5 20/208/5 16/61/5
f 26/209/5 30/207/5 73/60/5
f 22/210/5 26/209/5 73/60/5
f 73/60/5 79/191/5 16/61/5
f 18/62/5 22/210/5 73/60/5
f 65/45/2 67/44/2 57/63/2
f 142/65/4 121/99/4 59/47/4
f 147/67/2 67/44/2 63/42/2
f 63/42/2 60/52/2 145/66/2
f 71/68/45 74/135/45 75/69/45
f 72/71/46 76/126/46 75/72/46
f 73/60/47 77/123/47 75/74/47
f 84/8/48 87/153/48 88/76/48
f 85/56/49 89/133/49 88/76/49
f 86/38/50 90/130/50 88/76/50
f 97/28/51 100/148/51 101/80/51
f 98/82/52 102/143/52 101/83/52
f 99/29/53 103/141/53 101/85/53
f 107/34/54 110/144/54 111/87/54
f 108/89/55 112/211/55 111/90/55
f 113/92/56 111/212/56 112/93/56
f 121/99/57 124/151/57 125/100/57
f 126/102/58 125/213/58 124/103/58
f 127/104/59 125/214/59 126/102/59
f 131/105/60 132/215/60 134/106/60
f 133/108/61 132/216/61 131/109/61
f 130/110/62 134/154/62 132/111/62
f 138/113/63 139/217/63 141/114/63
f 140/115/64 139/218/64 138/116/64
f 137/11/65 141/134/65 139/118/65
f 71/68/26 77/70/26 70/122/26
f 77/123/27 73/60/27 69/124/27
f 78/10/28 80/219/28 76/126/28
f 80/127/29 79/191/29 73/60/29
f 91/9/22 93/220/22 127/104/22
f 127/128/30 93/221/30 92/129/30
f 91/9/31 84/8/31 90/130/31
f 93/131/32 90/130/32 86/38/32
f 82/57/33 83/5/33 89/133/33
f 83/5/34 81/171/34 86/38/34
f 72/71/23 74/73/23 141/134/23
f 74/135/20 71/68/20 135/1/20
f 105/4/66 94/6/66 96/136/66
f 106/138/67 96/222/67 95/31/67
f 97/28/68 103/81/68 96/139/68
f 103/141/69 99/29/69 95/31/69
f 98/82/70 107/34/70 113/88/70
f 102/86/71 113/92/71 109/94/71
f 105/32/72 106/223/72 112/93/72
f 112/93/73 106/223/73 104/30/73
f 119/36/74 120/145/74 110/144/74
f 120/145/75 118/23/75 108/22/75
f 98/82/23 100/84/23 117/147/23
f 100/148/20 97/28/20 115/27/20
f 122/24/22 124/103/22 144/150/22
f 124/151/30 121/99/30 142/65/30
f 128/107/23 134/106/23 87/153/23
f 134/154/20 130/110/20 85/56/20
f 129/25/3 131/105/3 126/102/3
f 131/105/3 128/107/3 123/7/3
f 129/25/23 137/11/23 140/155/23
f 133/156/20 140/115/20 136/117/20
f 78/10/22 143/12/22 144/150/22
f 80/158/30 144/152/30 142/159/30
f 146/3/1 148/160/1 138/113/1
f 148/160/1 145/54/1 136/117/1
f 69/224/2 57/63/2 67/44/2
f 67/44/2 147/67/2 146/121/2
f 146/121/2 68/225/2 70/161/2
f 70/161/2 69/224/2 67/44/2
