# Blender 4.3.2
# www.blender.org
mtllib room_escape_new_jinshu.mtl
g Cylinder.015_Mesh
v 0.757387 0.693654 -1.528254
v 0.774745 0.693654 -1.496410
v 0.780624 0.693654 -1.500408
v 0.785610 0.693654 -1.505476
v 0.789512 0.693654 -1.511420
v 0.792179 0.693654 -1.518010
v 0.793508 0.693654 -1.524995
v 0.793450 0.693654 -1.532104
v 0.792006 0.693654 -1.539066
v 0.789232 0.693654 -1.545612
v 0.785233 0.693654 -1.551491
v 0.780165 0.693654 -1.556477
v 0.774221 0.693654 -1.560379
v 0.767631 0.693654 -1.563046
v 0.760647 0.693654 -1.564375
v 0.753537 0.693654 -1.564317
v 0.746575 0.693654 -1.562873
v 0.740029 0.693654 -1.560099
v 0.734150 0.693654 -1.556100
v 0.729164 0.693654 -1.551032
v 0.725263 0.693654 -1.545089
v 0.722596 0.693654 -1.538498
v 0.721266 0.693654 -1.531514
v 0.721324 0.693654 -1.524404
v 0.722768 0.693654 -1.517442
v 0.725543 0.693654 -1.510896
v 0.729541 0.693654 -1.505017
v 0.734609 0.693654 -1.500031
v 0.740553 0.693654 -1.496130
v 0.747144 0.693654 -1.493463
v 0.754128 0.693654 -1.492133
v 0.761237 0.693654 -1.492191
v 0.768199 0.693654 -1.493635
v 0.774745 0.252639 -1.496410
v 0.780624 0.252639 -1.500408
v 0.785610 0.252639 -1.505476
v 0.789512 0.252639 -1.511420
v 0.792179 0.252639 -1.518010
v 0.793508 0.252639 -1.524995
v 0.793450 0.252639 -1.532104
v 0.792006 0.252639 -1.539066
v 0.789232 0.252639 -1.545612
v 0.785233 0.252639 -1.551491
v 0.780165 0.252639 -1.556477
v 0.774221 0.252639 -1.560379
v 0.767631 0.252639 -1.563046
v 0.760647 0.252639 -1.564375
v 0.753537 0.252639 -1.564317
v 0.746575 0.252639 -1.562873
v 0.740029 0.252639 -1.560099
v 0.734150 0.252639 -1.556100
v 0.729164 0.252639 -1.551032
v 0.725263 0.252639 -1.545089
v 0.722596 0.252639 -1.538498
v 0.721266 0.252639 -1.531514
v 0.721324 0.252639 -1.524404
v 0.722768 0.252639 -1.517442
v 0.725543 0.252639 -1.510896
v 0.729541 0.252639 -1.505017
v 0.734609 0.252639 -1.500031
v 0.740553 0.252639 -1.496130
v 0.747144 0.252639 -1.493463
v 0.754128 0.252639 -1.492133
v 0.761237 0.252639 -1.492191
v 0.768199 0.252639 -1.493635
v 0.757387 0.252639 -1.528254
vn -0.0000 1.0000 -0.0000
vn 0.4786 -0.0000 0.8780
vn 0.6407 -0.0000 0.7678
vn 0.7782 -0.0000 0.6280
vn 0.8857 -0.0000 0.4642
vn 0.9593 -0.0000 0.2824
vn 0.9960 -0.0000 0.0899
vn 0.9943 -0.0000 -0.1062
vn 0.9545 -0.0000 -0.2981
vn 0.8780 -0.0000 -0.4786
vn 0.7678 -0.0000 -0.6407
vn 0.6280 -0.0000 -0.7782
vn 0.4642 -0.0000 -0.8857
vn 0.2824 -0.0000 -0.9593
vn 0.0899 -0.0000 -0.9960
vn -0.1062 -0.0000 -0.9943
vn -0.2981 -0.0000 -0.9545
vn -0.4786 -0.0000 -0.8780
vn -0.6407 -0.0000 -0.7678
vn -0.7782 -0.0000 -0.6281
vn -0.8857 -0.0000 -0.4642
vn -0.8858 -0.0000 -0.4642
vn -0.9593 -0.0000 -0.2824
vn -0.9960 -0.0000 -0.0899
vn -0.9943 -0.0000 0.1062
vn -0.9545 -0.0000 0.2981
vn -0.8780 -0.0000 0.4786
vn -0.7678 -0.0000 0.6407
vn -0.6280 -0.0000 0.7782
vn -0.4642 -0.0000 0.8857
vn -0.2824 -0.0000 0.9593
vn -0.0899 -0.0000 0.9960
vn 0.1062 -0.0000 0.9943
vn 0.2981 -0.0000 0.9545
vn -0.0000 -1.0000 -0.0000
vt 0.475000 0.250000
vt 0.470677 0.293895
vt 0.250000 0.250000
vt 0.457873 0.336104
vt 0.437081 0.375003
vt 0.409099 0.409099
vt 0.375003 0.437081
vt 0.336104 0.457873
vt 0.293895 0.470677
vt 0.250000 0.475000
vt 0.206105 0.470677
vt 0.163896 0.457873
vt 0.124997 0.437081
vt 0.090901 0.409099
vt 0.062919 0.375003
vt 0.042127 0.336104
vt 0.029323 0.293895
vt 0.025000 0.250000
vt 0.029323 0.206105
vt 0.042127 0.163896
vt 0.062919 0.124997
vt 0.090901 0.090901
vt 0.124997 0.062919
vt 0.163896 0.042127
vt 0.206105 0.029323
vt 0.250000 0.025000
vt 0.293896 0.029323
vt 0.336104 0.042127
vt 0.375004 0.062919
vt 0.409099 0.090901
vt 0.437081 0.124997
vt 0.457873 0.163897
vt 0.470677 0.206105
vt 0.000000 1.000000
vt 0.031250 0.500000
vt 0.000000 0.500000
vt 0.031250 1.000000
vt 0.062500 0.500000
vt 0.062500 1.000000
vt 0.093750 0.500000
vt 0.093750 1.000000
vt 0.125000 0.500000
vt 0.125000 1.000000
vt 0.156250 0.500000
vt 0.156250 1.000000
vt 0.187500 0.500000
vt 0.187500 1.000000
vt 0.218750 0.500000
vt 0.218750 1.000000
vt 0.250000 0.500000
vt 0.250000 1.000000
vt 0.281250 0.500000
vt 0.281250 1.000000
vt 0.312500 0.500000
vt 0.312500 1.000000
vt 0.343750 0.500000
vt 0.343750 1.000000
vt 0.375000 0.500000
vt 0.375000 1.000000
vt 0.406250 0.500000
vt 0.406250 1.000000
vt 0.437500 0.500000
vt 0.437500 1.000000
vt 0.468750 0.500000
vt 0.468750 1.000000
vt 0.500000 0.500000
vt 0.500000 1.000000
vt 0.531250 0.500000
vt 0.531250 1.000000
vt 0.562500 0.500000
vt 0.562500 1.000000
vt 0.593750 0.500000
vt 0.593750 1.000000
vt 0.625000 0.500000
vt 0.625000 1.000000
vt 0.656250 0.500000
vt 0.656250 1.000000
vt 0.687500 0.500000
vt 0.687500 1.000000
vt 0.718750 0.500000
vt 0.718750 1.000000
vt 0.750000 0.500000
vt 0.750000 1.000000
vt 0.781250 0.500000
vt 0.781250 1.000000
vt 0.812500 0.500000
vt 0.812500 1.000000
vt 0.843750 0.500000
vt 0.843750 1.000000
vt 0.875000 0.500000
vt 0.875000 1.000000
vt 0.906250 0.500000
vt 0.906250 1.000000
vt 0.937500 0.500000
vt 0.937500 1.000000
vt 0.968750 0.500000
vt 0.968750 1.000000
vt 1.000000 0.500000
vt 0.975000 0.250000
vt 0.750000 0.250000
vt 0.970677 0.293895
vt 0.957873 0.336104
vt 0.937081 0.375003
vt 0.909099 0.409099
vt 0.875003 0.437081
vt 0.836104 0.457873
vt 0.793895 0.470677
vt 0.750000 0.475000
vt 0.706105 0.470677
vt 0.663896 0.457873
vt 0.624997 0.437081
vt 0.590901 0.409099
vt 0.562919 0.375003
vt 0.542127 0.336104
vt 0.529323 0.293895
vt 0.525000 0.250000
vt 0.529323 0.206105
vt 0.542127 0.163896
vt 0.562919 0.124997
vt 0.590901 0.090901
vt 0.624997 0.062919
vt 0.663896 0.042127
vt 0.706105 0.029323
vt 0.750000 0.025000
vt 0.793896 0.029323
vt 0.836104 0.042127
vt 0.875004 0.062919
vt 0.909099 0.090901
vt 0.937081 0.124997
vt 0.957873 0.163897
vt 0.970677 0.206105
vt 1.000000 1.000000
s 1
g off
g Cylinder.015_jinshu
usemtl jinshu
f 2/1/1 3/2/1 1/3/1
f 3/2/1 4/4/1 1/3/1
f 4/4/1 5/5/1 1/3/1
f 5/5/1 6/6/1 1/3/1
f 6/6/1 7/7/1 1/3/1
f 7/7/1 8/8/1 1/3/1
f 8/8/1 9/9/1 1/3/1
f 9/9/1 10/10/1 1/3/1
f 10/10/1 11/11/1 1/3/1
f 11/11/1 12/12/1 1/3/1
f 12/12/1 13/13/1 1/3/1
f 13/13/1 14/14/1 1/3/1
f 14/14/1 15/15/1 1/3/1
f 15/15/1 16/16/1 1/3/1
f 16/16/1 17/17/1 1/3/1
f 17/17/1 18/18/1 1/3/1
f 18/18/1 19/19/1 1/3/1
f 19/19/1 20/20/1 1/3/1
f 20/20/1 21/21/1 1/3/1
f 21/21/1 22/22/1 1/3/1
f 22/22/1 23/23/1 1/3/1
f 23/23/1 24/24/1 1/3/1
f 24/24/1 25/25/1 1/3/1
f 25/25/1 26/26/1 1/3/1
f 26/26/1 27/27/1 1/3/1
f 27/27/1 28/28/1 1/3/1
f 28/28/1 29/29/1 1/3/1
f 29/29/1 30/30/1 1/3/1
f 30/30/1 31/31/1 1/3/1
f 31/31/1 32/32/1 1/3/1
f 32/32/1 33/33/1 1/3/1
f 33/33/1 2/1/1 1/3/1
s 2
f 34/34/2 3/35/3 2/36/2
f 35/37/3 4/38/4 3/35/3
f 36/39/4 5/40/5 4/38/4
f 37/41/5 6/42/6 5/40/5
f 38/43/6 7/44/7 6/42/6
f 39/45/7 8/46/8 7/44/7
f 40/47/8 9/48/9 8/46/8
f 41/49/9 10/50/10 9/48/9
f 42/51/10 11/52/11 10/50/10
f 43/53/11 12/54/12 11/52/11
f 44/55/12 13/56/13 12/54/12
f 45/57/13 14/58/14 13/56/13
f 46/59/14 15/60/15 14/58/14
f 47/61/15 16/62/16 15/60/15
f 48/63/16 17/64/17 16/62/16
f 49/65/17 18/66/18 17/64/17
f 50/67/18 19/68/19 18/66/18
f 51/69/19 20/70/20 19/68/19
f 52/71/20 21/72/21 20/70/20
f 53/73/22 22/74/23 21/72/21
f 54/75/23 23/76/24 22/74/23
f 55/77/24 24/78/25 23/76/24
f 56/79/25 25/80/26 24/78/25
f 57/81/26 26/82/27 25/80/26
f 58/83/27 27/84/28 26/82/27
f 59/85/28 28/86/29 27/84/28
f 60/87/29 29/88/30 28/86/29
f 61/89/30 30/90/31 29/88/30
f 62/91/31 31/92/32 30/90/31
f 63/93/32 32/94/33 31/92/32
f 64/95/33 33/96/34 32/94/33
f 65/97/34 2/98/2 33/96/34
s 1
f 34/99/35 66/100/35 35/101/35
f 35/101/35 66/100/35 36/102/35
f 36/102/35 66/100/35 37/103/35
f 37/103/35 66/100/35 38/104/35
f 38/104/35 66/100/35 39/105/35
f 39/105/35 66/100/35 40/106/35
f 40/106/35 66/100/35 41/107/35
f 41/107/35 66/100/35 42/108/35
f 42/108/35 66/100/35 43/109/35
f 43/109/35 66/100/35 44/110/35
f 44/110/35 66/100/35 45/111/35
f 45/111/35 66/100/35 46/112/35
f 46/112/35 66/100/35 47/113/35
f 47/113/35 66/100/35 48/114/35
f 48/114/35 66/100/35 49/115/35
f 49/115/35 66/100/35 50/116/35
f 50/116/35 66/100/35 51/117/35
f 51/117/35 66/100/35 52/118/35
f 52/118/35 66/100/35 53/119/35
f 53/119/35 66/100/35 54/120/35
f 54/120/35 66/100/35 55/121/35
f 55/121/35 66/100/35 56/122/35
f 56/122/35 66/100/35 57/123/35
f 57/123/35 66/100/35 58/124/35
f 58/124/35 66/100/35 59/125/35
f 59/125/35 66/100/35 60/126/35
f 60/126/35 66/100/35 61/127/35
f 61/127/35 66/100/35 62/128/35
f 62/128/35 66/100/35 63/129/35
f 63/129/35 66/100/35 64/130/35
f 64/130/35 66/100/35 65/131/35
f 65/131/35 66/100/35 34/99/35
s 2
f 34/34/2 35/37/3 3/35/3
f 35/37/3 36/39/4 4/38/4
f 36/39/4 37/41/5 5/40/5
f 37/41/5 38/43/6 6/42/6
f 38/43/6 39/45/7 7/44/7
f 39/45/7 40/47/8 8/46/8
f 40/47/8 41/49/9 9/48/9
f 41/49/9 42/51/10 10/50/10
f 42/51/10 43/53/11 11/52/11
f 43/53/11 44/55/12 12/54/12
f 44/55/12 45/57/13 13/56/13
f 45/57/13 46/59/14 14/58/14
f 46/59/14 47/61/15 15/60/15
f 47/61/15 48/63/16 16/62/16
f 48/63/16 49/65/17 17/64/17
f 49/65/17 50/67/18 18/66/18
f 50/67/18 51/69/19 19/68/19
f 51/69/19 52/71/20 20/70/20
f 52/71/20 53/73/22 21/72/21
f 53/73/22 54/75/23 22/74/23
f 54/75/23 55/77/24 23/76/24
f 55/77/24 56/79/25 24/78/25
f 56/79/25 57/81/26 25/80/26
f 57/81/26 58/83/27 26/82/27
f 58/83/27 59/85/28 27/84/28
f 59/85/28 60/87/29 28/86/29
f 60/87/29 61/89/30 29/88/30
f 61/89/30 62/91/31 30/90/31
f 62/91/31 63/93/32 31/92/32
f 63/93/32 64/95/33 32/94/33
f 64/95/33 65/97/34 33/96/34
f 65/97/34 34/132/2 2/98/2
g Cylinder.014_Mesh
v 0.424457 0.462851 -1.317524
v 0.434592 0.462852 -1.298930
v 0.433329 0.465454 -1.298705
v 0.431725 0.467956 -1.299203
v 0.429841 0.470262 -1.300405
v 0.427751 0.472284 -1.302265
v 0.425534 0.473943 -1.304712
v 0.423276 0.475175 -1.307650
v 0.421063 0.475935 -1.310969
v 0.418981 0.476191 -1.314539
v 0.417108 0.475935 -1.318224
v 0.415519 0.475175 -1.321882
v 0.414273 0.473943 -1.325372
v 0.413418 0.472284 -1.328561
v 0.412987 0.470263 -1.331326
v 0.412997 0.467956 -1.333560
v 0.413448 0.465454 -1.335178
v 0.414322 0.462852 -1.336118
v 0.415585 0.460249 -1.336343
v 0.417189 0.457747 -1.335845
v 0.419072 0.455441 -1.334643
v 0.421163 0.453419 -1.332783
v 0.423379 0.451760 -1.330336
v 0.425638 0.450528 -1.327397
v 0.427851 0.449769 -1.324079
v 0.429933 0.449512 -1.320509
v 0.431805 0.449768 -1.316824
v 0.433395 0.450528 -1.313166
v 0.434641 0.451760 -1.309676
v 0.435496 0.453419 -1.306487
v 0.435927 0.455441 -1.303722
v 0.435916 0.457747 -1.301487
v 0.435466 0.460249 -1.299870
v 0.721735 0.615761 -1.455445
v 0.720472 0.618363 -1.455220
v 0.718868 0.620866 -1.455718
v 0.716984 0.623172 -1.456921
v 0.714894 0.625193 -1.458781
v 0.712677 0.626852 -1.461227
v 0.710419 0.628085 -1.464166
v 0.708206 0.628844 -1.467484
v 0.706123 0.629100 -1.471054
v 0.704251 0.628844 -1.474739
v 0.702662 0.628085 -1.478397
v 0.701416 0.626852 -1.481888
v 0.700561 0.625193 -1.485077
v 0.700130 0.623172 -1.487841
v 0.700140 0.620866 -1.490076
v 0.700591 0.618363 -1.491694
v 0.701465 0.615761 -1.492634
v 0.702728 0.613159 -1.492859
v 0.704332 0.610656 -1.492360
v 0.706215 0.608350 -1.491158
v 0.708305 0.606329 -1.489298
v 0.710522 0.604670 -1.486852
v 0.712781 0.603437 -1.483913
v 0.714994 0.602678 -1.480595
v 0.717076 0.602422 -1.477025
v 0.718948 0.602678 -1.473340
v 0.720538 0.603437 -1.469682
v 0.721784 0.604670 -1.466191
v 0.722639 0.606329 -1.463002
v 0.723069 0.608350 -1.460238
v 0.723059 0.610656 -1.458003
v 0.722609 0.613159 -1.456385
v 0.711600 0.615761 -1.474039
vn -0.7954 -0.4236 0.4335
vn -0.7954 -0.4235 0.4335
vn -0.7954 -0.4236 0.4336
vn -0.7954 -0.4235 0.4336
vn 0.4717 0.0167 0.8816
vn 0.3662 0.2341 0.9006
vn 0.4832 -0.0113 0.8754
vn 0.3484 0.2658 0.8989
vn 0.2318 0.4484 0.8633
vn 0.2111 0.4769 0.8532
vn 0.0988 0.6151 0.7822
vn 0.0789 0.6369 0.7669
vn -0.0219 0.7349 0.6778
vn -0.0390 0.7495 0.6608
vn -0.1273 0.8161 0.5637
vn -0.1410 0.8250 0.5473
vn -0.2184 0.8676 0.4468
vn -0.2291 0.8723 0.4320
vn -0.2980 0.8961 0.3288
vn -0.3061 0.8981 0.3158
vn -0.3684 0.9058 0.2090
vn -0.3745 0.9059 0.1979
vn -0.4317 0.8980 0.0853
vn -0.4360 0.8967 0.0762
vn -0.4886 0.8714 -0.0451
vn -0.4913 0.8694 -0.0520
vn -0.5386 0.8220 -0.1850
vn -0.5399 0.8202 -0.1892
vn -0.5788 0.7430 -0.3361
vn -0.6028 0.6272 -0.4932
vn -0.6031 0.6242 -0.4966
vn -0.6017 0.4654 -0.6491
vn -0.6007 0.4559 -0.6567
vn -0.5640 0.2552 -0.7854
vn -0.5590 0.2361 -0.7948
vn -0.4832 0.0113 -0.8754
vn -0.4717 -0.0167 -0.8816
vn -0.3662 -0.2341 -0.9006
vn -0.3484 -0.2658 -0.8989
vn -0.2318 -0.4484 -0.8633
vn -0.2111 -0.4769 -0.8532
vn -0.0988 -0.6152 -0.7822
vn -0.0789 -0.6368 -0.7669
vn 0.0219 -0.7350 -0.6778
vn 0.0390 -0.7495 -0.6608
vn 0.1273 -0.8161 -0.5637
vn 0.1410 -0.8249 -0.5473
vn 0.2185 -0.8676 -0.4468
vn 0.2291 -0.8723 -0.4319
vn 0.2980 -0.8962 -0.3288
vn 0.3061 -0.8981 -0.3158
vn 0.3684 -0.9058 -0.2090
vn 0.3745 -0.9059 -0.1979
vn 0.4317 -0.8980 -0.0853
vn 0.4360 -0.8967 -0.0762
vn 0.4886 -0.8714 0.0451
vn 0.4913 -0.8694 0.0520
vn 0.5386 -0.8220 0.1850
vn 0.5399 -0.8202 0.1892
vn 0.5788 -0.7430 0.3361
vn 0.5790 -0.7425 0.3369
vn 0.6028 -0.6272 0.4932
vn 0.6031 -0.6242 0.4966
vn 0.6017 -0.4654 0.6491
vn 0.6007 -0.4559 0.6567
vn 0.5640 -0.2552 0.7854
vn 0.5590 -0.2361 0.7948
vn 0.7954 0.4236 -0.4336
vn 0.7954 0.4236 -0.4335
vn 0.7954 0.4235 -0.4335
vn -0.5790 0.7425 -0.3369
vt 0.475000 0.250000
vt 0.470677 0.293895
vt 0.250000 0.250000
vt 0.457873 0.336104
vt 0.437081 0.375003
vt 0.409099 0.409099
vt 0.375003 0.437081
vt 0.336104 0.457873
vt 0.293895 0.470677
vt 0.250000 0.475000
vt 0.206105 0.470677
vt 0.163896 0.457873
vt 0.124997 0.437081
vt 0.090901 0.409099
vt 0.062919 0.375003
vt 0.042127 0.336104
vt 0.029323 0.293895
vt 0.025000 0.250000
vt 0.029323 0.206105
vt 0.042127 0.163896
vt 0.062919 0.124997
vt 0.090901 0.090901
vt 0.124997 0.062919
vt 0.163896 0.042127
vt 0.206105 0.029323
vt 0.250000 0.025000
vt 0.293896 0.029323
vt 0.336104 0.042127
vt 0.375004 0.062919
vt 0.409099 0.090901
vt 0.437081 0.124997
vt 0.457873 0.163897
vt 0.470677 0.206105
vt 0.000000 1.000000
vt 0.031250 0.500000
vt 0.000000 0.500000
vt 0.031250 1.000000
vt 0.062500 0.500000
vt 0.062500 1.000000
vt 0.093750 0.500000
vt 0.093750 1.000000
vt 0.125000 0.500000
vt 0.125000 1.000000
vt 0.156250 0.500000
vt 0.156250 1.000000
vt 0.187500 0.500000
vt 0.187500 1.000000
vt 0.218750 0.500000
vt 0.218750 1.000000
vt 0.250000 0.500000
vt 0.250000 1.000000
vt 0.281250 0.500000
vt 0.281250 1.000000
vt 0.312500 0.500000
vt 0.312500 1.000000
vt 0.343750 0.500000
vt 0.343750 1.000000
vt 0.375000 0.500000
vt 0.406250 1.000000
vt 0.406250 0.500000
vt 0.437500 1.000000
vt 0.437500 0.500000
vt 0.468750 1.000000
vt 0.468750 0.500000
vt 0.500000 1.000000
vt 0.500000 0.500000
vt 0.531250 1.000000
vt 0.531250 0.500000
vt 0.562500 1.000000
vt 0.562500 0.500000
vt 0.593750 1.000000
vt 0.593750 0.500000
vt 0.625000 1.000000
vt 0.625000 0.500000
vt 0.656250 1.000000
vt 0.656250 0.500000
vt 0.687500 1.000000
vt 0.687500 0.500000
vt 0.718750 1.000000
vt 0.718750 0.500000
vt 0.750000 1.000000
vt 0.750000 0.500000
vt 0.781250 1.000000
vt 0.781250 0.500000
vt 0.812500 1.000000
vt 0.812500 0.500000
vt 0.843750 1.000000
vt 0.843750 0.500000
vt 0.875000 1.000000
vt 0.875000 0.500000
vt 0.906250 0.500000
vt 0.906250 1.000000
vt 0.937500 0.500000
vt 0.937500 1.000000
vt 0.968750 0.500000
vt 0.968750 1.000000
vt 1.000000 0.500000
vt 0.975000 0.250000
vt 0.750000 0.250000
vt 0.970677 0.293895
vt 0.957873 0.336104
vt 0.937081 0.375003
vt 0.909099 0.409099
vt 0.875003 0.437081
vt 0.836104 0.457873
vt 0.793895 0.470677
vt 0.750000 0.475000
vt 0.706105 0.470677
vt 0.663896 0.457873
vt 0.624997 0.437081
vt 0.590901 0.409099
vt 0.562919 0.375003
vt 0.542127 0.336104
vt 0.529323 0.293895
vt 0.525000 0.250000
vt 0.529323 0.206105
vt 0.542127 0.163896
vt 0.562919 0.124997
vt 0.590901 0.090901
vt 0.624997 0.062919
vt 0.663896 0.042127
vt 0.706105 0.029323
vt 0.750000 0.025000
vt 0.793896 0.029323
vt 0.836104 0.042127
vt 0.875004 0.062919
vt 0.909099 0.090901
vt 0.937081 0.124997
vt 0.957873 0.163897
vt 0.970677 0.206105
vt 0.375000 1.000000
vt 1.000000 1.000000
s 1
g off
g Cylinder.014_jinshu
usemtl jinshu
f 68/133/36 69/134/36 67/135/36
f 69/134/36 70/136/36 67/135/36
f 70/136/36 71/137/36 67/135/36
f 71/137/36 72/138/36 67/135/36
f 72/138/36 73/139/36 67/135/36
f 73/139/36 74/140/36 67/135/36
f 74/140/36 75/141/36 67/135/36
f 75/141/36 76/142/36 67/135/36
f 76/142/36 77/143/36 67/135/36
f 77/143/36 78/144/36 67/135/36
f 78/144/36 79/145/36 67/135/36
f 79/145/36 80/146/36 67/135/36
f 80/146/36 81/147/37 67/135/36
f 81/147/37 82/148/36 67/135/36
f 82/148/36 83/149/36 67/135/36
f 83/149/36 84/150/36 67/135/36
f 84/150/36 85/151/38 67/135/36
f 85/151/38 86/152/36 67/135/36
f 86/152/36 87/153/36 67/135/36
f 87/153/36 88/154/36 67/135/36
f 88/154/36 89/155/36 67/135/36
f 89/155/36 90/156/38 67/135/36
f 90/156/38 91/157/36 67/135/36
f 91/157/36 92/158/36 67/135/36
f 92/158/36 93/159/36 67/135/36
f 93/159/36 94/160/36 67/135/36
f 94/160/36 95/161/36 67/135/36
f 95/161/36 96/162/36 67/135/36
f 96/162/36 97/163/39 67/135/36
f 97/163/39 98/164/38 67/135/36
f 98/164/38 99/165/38 67/135/36
f 99/165/38 68/133/36 67/135/36
s 2
f 100/166/40 69/167/41 68/168/42
f 101/169/43 70/170/44 69/167/41
f 102/171/45 71/172/46 70/170/44
f 103/173/47 72/174/48 71/172/46
f 104/175/49 73/176/50 72/174/48
f 105/177/51 74/178/52 73/176/50
f 106/179/53 75/180/54 74/178/52
f 107/181/55 76/182/56 75/180/54
f 108/183/57 77/184/58 76/182/56
f 109/185/59 78/186/60 77/184/58
f 110/187/61 79/188/62 78/186/60
f 111/189/63 80/190/64 79/188/62
f 80/190/64 113/191/65 81/192/66
f 81/192/66 114/193/67 82/194/68
f 82/194/68 115/195/69 83/196/70
f 83/196/70 116/197/71 84/198/72
f 84/198/72 117/199/73 85/200/74
f 85/200/74 118/201/75 86/202/76
f 86/202/76 119/203/77 87/204/78
f 87/204/78 120/205/79 88/206/80
f 88/206/80 121/207/81 89/208/82
f 89/208/82 122/209/83 90/210/84
f 90/210/84 123/211/85 91/212/86
f 91/212/86 124/213/87 92/214/88
f 92/214/88 125/215/89 93/216/90
f 93/216/90 126/217/91 94/218/92
f 94/218/92 127/219/93 95/220/94
f 95/220/94 128/221/95 96/222/96
f 128/221/95 97/223/97 96/222/96
f 129/224/98 98/225/99 97/223/97
f 130/226/100 99/227/101 98/225/99
f 131/228/102 68/229/42 99/227/101
s 1
f 100/230/103 132/231/104 101/232/105
f 101/232/105 132/231/104 102/233/103
f 102/233/103 132/231/104 103/234/104
f 103/234/104 132/231/104 104/235/104
f 104/235/104 132/231/104 105/236/103
f 105/236/103 132/231/104 106/237/104
f 106/237/104 132/231/104 107/238/104
f 107/238/104 132/231/104 108/239/103
f 108/239/103 132/231/104 109/240/104
f 109/240/104 132/231/104 110/241/104
f 110/241/104 132/231/104 111/242/103
f 111/242/103 132/231/104 112/243/104
f 112/243/104 132/231/104 113/244/104
f 113/244/104 132/231/104 114/245/104
f 114/245/104 132/231/104 115/246/104
f 115/246/104 132/231/104 116/247/104
f 116/247/104 132/231/104 117/248/104
f 117/248/104 132/231/104 118/249/104
f 118/249/104 132/231/104 119/250/104
f 119/250/104 132/231/104 120/251/104
f 120/251/104 132/231/104 121/252/103
f 121/252/103 132/231/104 122/253/104
f 122/253/104 132/231/104 123/254/104
f 123/254/104 132/231/104 124/255/104
f 124/255/104 132/231/104 125/256/104
f 125/256/104 132/231/104 126/257/103
f 126/257/103 132/231/104 127/258/103
f 127/258/103 132/231/104 128/259/104
f 128/259/104 132/231/104 129/260/104
f 129/260/104 132/231/104 130/261/104
f 130/261/104 132/231/104 131/262/104
f 131/262/104 132/231/104 100/230/103
s 2
f 100/166/40 101/169/43 69/167/41
f 101/169/43 102/171/45 70/170/44
f 102/171/45 103/173/47 71/172/46
f 103/173/47 104/175/49 72/174/48
f 104/175/49 105/177/51 73/176/50
f 105/177/51 106/179/53 74/178/52
f 106/179/53 107/181/55 75/180/54
f 107/181/55 108/183/57 76/182/56
f 108/183/57 109/185/59 77/184/58
f 109/185/59 110/187/61 78/186/60
f 110/187/61 111/189/63 79/188/62
f 111/189/63 112/263/106 80/190/64
f 80/190/64 112/263/106 113/191/65
f 81/192/66 113/191/65 114/193/67
f 82/194/68 114/193/67 115/195/69
f 83/196/70 115/195/69 116/197/71
f 84/198/72 116/197/71 117/199/73
f 85/200/74 117/199/73 118/201/75
f 86/202/76 118/201/75 119/203/77
f 87/204/78 119/203/77 120/205/79
f 88/206/80 120/205/79 121/207/81
f 89/208/82 121/207/81 122/209/83
f 90/210/84 122/209/83 123/211/85
f 91/212/86 123/211/85 124/213/87
f 92/214/88 124/213/87 125/215/89
f 93/216/90 125/215/89 126/217/91
f 94/218/92 126/217/91 127/219/93
f 95/220/94 127/219/93 128/221/95
f 128/221/95 129/224/98 97/223/97
f 129/224/98 130/226/100 98/225/99
f 130/226/100 131/228/102 99/227/101
f 131/228/102 100/264/40 68/229/42
