# Blender 4.3.2
# www.blender.org
mtllib room_escape_new_xiaoguizi.mtl
g Grid.008_Mesh
v 2.531566 0.284869 2.667762
v 2.486315 0.284869 1.800939
v 2.531566 0.284869 1.848806
v 2.518312 0.284869 1.814959
v 2.486315 1.180928 2.619895
v 2.531566 1.120242 2.667762
v 2.518312 1.163153 2.653742
v 2.486315 1.180928 1.848806
v 2.531566 1.120242 1.848806
v 2.486315 1.120242 1.800939
v 2.518312 1.163153 1.848806
v 2.512441 1.155279 1.821170
v 2.518312 1.120242 1.814959
v 2.486315 1.163153 1.814959
v 2.522035 0.284869 2.667762
v 2.476784 0.345554 2.619895
v 2.490037 0.302644 2.653742
v 2.476784 0.345554 1.848806
v 2.522035 0.284869 1.800939
v 2.490037 0.302644 1.814959
v 2.522035 1.180928 2.619895
v 2.476784 1.120242 2.619895
v 2.522035 1.120242 2.667762
v 2.490038 1.163153 2.619895
v 2.495909 1.155279 2.647531
v 2.490038 1.120242 2.653742
v 2.522035 1.163153 2.653742
v 2.522035 1.180928 1.848806
v 2.522035 1.120242 1.800939
v 2.476784 1.120242 1.848806
v 2.522035 1.163153 1.814959
v 2.495909 1.155279 1.821170
v 2.490038 1.120242 1.814959
v 2.490038 1.163153 1.848806
vn -0.0000 -0.0000 1.0000
vn -1.0000 -0.0000 -0.0000
vn 1.0000 -0.0000 -0.0000
vn -0.0000 -1.0000 -0.0000
vn 0.3531 0.8283 -0.4350
vn 0.9184 0.2837 -0.2759
vn 0.3911 0.2238 -0.8927
vn -0.3531 0.8283 0.4350
vn -0.9184 0.2837 0.2759
vn -0.3912 0.2238 0.8927
vn -0.4580 0.8245 -0.3322
vn -0.3044 0.2958 -0.9054
vn -0.9093 0.2155 -0.3561
vn 0.9555 0.2951 -0.0000
vn 0.4856 0.8742 -0.0000
vn 0.4013 -0.0000 -0.9159
vn 0.9312 -0.0000 -0.3646
vn -0.9555 -0.2951 -0.0000
vn -0.4856 -0.8742 -0.0000
vn -0.4856 0.8742 -0.0000
vn -0.9555 0.2951 -0.0000
vn -0.4013 -0.0000 0.9159
vn -0.9312 -0.0000 0.3646
vn -0.9312 -0.0000 -0.3646
vn -0.4013 -0.0000 -0.9159
vn -0.0000 -0.8853 -0.4649
vn -0.0000 0.3106 0.9506
vn -0.0000 -0.8853 0.4649
vn -0.0000 -0.3106 0.9506
vn -0.0000 1.0000 -0.0000
vn 0.4580 0.8245 -0.3322
vn 0.9093 0.2155 -0.3560
vn 0.3044 0.2958 -0.9054
vn -0.4580 0.8245 0.3322
vn -0.9093 0.2155 0.3561
vn -0.3044 0.2958 0.9054
vn -0.3531 0.8283 -0.4350
vn -0.3912 0.2238 -0.8927
vn -0.9184 0.2837 -0.2759
vn -0.0000 -0.3106 -0.9506
vt 0.000000 1.000000
vt 0.932275 1.000000
vt 0.932275 0.055221
vt 0.067725 0.944779
vt 0.067725 0.055221
vt 0.000000 0.944779
vt 0.932275 0.000000
vt 0.000000 0.000000
vt 1.000000 0.944779
vt 1.000000 0.055221
vt 1.000000 0.055221
vt 0.932275 0.000000
vt 0.990459 0.992220
vt 1.000000 1.000000
vt 0.932275 0.944779
vt 1.000000 0.944779
vt 0.932275 1.000000
vt 0.990459 0.007780
vt 1.000000 0.000000
vt 1.000000 0.055221
vt 1.000000 0.944779
vt 1.000000 0.008087
vt 0.000000 0.994609
vt 0.009918 0.008087
vt 1.000000 0.055221
vt 0.009918 0.991913
vt 0.000000 0.944779
vt 1.000000 0.055221
s 0
g off
g Grid.008_blue
usemtl blue
f 2/1/1 29/2/1 10/2/1
f 22/3/2 18/4/2 16/5/2
f 3/6/3 6/7/3 1/8/3
f 8/9/4 21/10/4 5/11/4
f 6/12/1 15/8/1 1/8/1
f 8/9/5 12/13/5 14/14/5
f 9/15/6 12/13/6 11/16/6
f 10/2/7 12/13/7 13/17/7
f 21/10/8 25/18/8 27/19/8
f 22/3/9 25/18/9 24/20/9
f 23/7/10 25/18/10 26/12/10
f 28/21/11 32/13/11 34/16/11
f 29/2/12 32/13/12 31/14/12
f 30/15/13 32/13/13 33/17/13
f 9/15/14 7/22/14 6/7/14
f 11/16/15 5/11/15 7/22/15
f 10/2/16 4/23/16 2/1/16
f 13/17/17 3/6/17 4/23/17
f 18/4/18 17/24/18 16/5/18
f 17/24/19 19/1/19 15/8/19
f 28/21/20 24/25/20 21/10/20
f 34/16/21 22/3/21 24/25/21
f 23/7/22 17/24/22 15/8/22
f 26/12/23 16/5/23 17/24/23
f 18/4/24 33/17/24 20/26/24
f 20/26/25 29/2/25 19/1/25
f 21/10/26 7/22/26 5/11/26
f 7/22/27 23/7/27 6/12/27
f 8/9/28 31/14/28 28/21/28
f 14/14/29 29/2/29 31/14/29
f 2/1/30 3/27/30 19/1/30
f 2/1/1 19/1/1 29/2/1
f 22/3/2 30/15/2 18/4/2
f 3/6/3 9/15/3 6/7/3
f 8/9/4 28/21/4 21/10/4
f 6/12/1 23/7/1 15/8/1
f 8/9/31 11/16/31 12/13/31
f 9/15/32 13/17/32 12/13/32
f 10/2/33 14/14/33 12/13/33
f 21/10/34 24/28/34 25/18/34
f 22/3/35 26/12/35 25/18/35
f 23/7/36 27/19/36 25/18/36
f 28/21/37 31/14/37 32/13/37
f 29/2/38 33/17/38 32/13/38
f 30/15/39 34/16/39 32/13/39
f 9/15/14 11/16/14 7/22/14
f 11/16/15 8/9/15 5/11/15
f 10/2/16 13/17/16 4/23/16
f 13/17/17 9/15/17 3/6/17
f 18/4/18 20/26/18 17/24/18
f 17/24/19 20/26/19 19/1/19
f 28/21/20 34/16/20 24/25/20
f 34/16/21 30/15/21 22/3/21
f 23/7/22 26/12/22 17/24/22
f 26/12/23 22/3/23 16/5/23
f 18/4/24 30/15/24 33/17/24
f 20/26/25 33/17/25 29/2/25
f 21/10/26 27/19/26 7/22/26
f 7/22/40 27/19/40 23/7/40
f 8/9/28 14/14/28 31/14/28
f 14/14/29 10/2/29 29/2/29
f 2/1/4 4/23/4 3/27/4
f 3/27/4 1/8/4 15/8/4
f 3/27/4 15/8/4 19/1/4
g Grid.009_Mesh
v 2.521825 0.279765 2.666774
v 2.476574 0.340450 3.537387
v 2.521825 0.279765 3.492136
v 2.508571 0.297540 3.524134
v 2.472153 1.175823 3.490871
v 2.476574 1.115138 3.537387
v 2.521825 1.115138 3.492136
v 2.476574 1.158049 3.524134
v 2.502700 1.150175 3.518262
v 2.508571 1.115138 3.524134
v 2.508571 1.158049 3.492136
v 2.472153 1.175823 2.710760
v 2.521825 1.115138 2.666774
v 2.508571 1.158049 2.680027
v 2.512294 0.279765 3.492136
v 2.512294 0.340450 3.537387
v 2.467043 0.340450 3.492136
v 2.512294 0.297540 3.524134
v 2.486168 0.305414 3.518262
v 2.480297 0.340450 3.524134
v 2.480297 0.297540 3.492136
v 2.467043 0.340450 2.712024
v 2.512294 0.279765 2.666774
v 2.480297 0.297540 2.680027
v 2.512294 1.175823 3.492136
v 2.467043 1.115138 3.492136
v 2.512294 1.115138 3.537387
v 2.480297 1.158049 3.492136
v 2.486168 1.150175 3.518262
v 2.480297 1.115138 3.524134
v 2.512294 1.158049 3.524134
v 2.512294 1.175823 2.712024
v 2.512294 1.115138 2.666774
v 2.467043 1.115138 2.712024
v 2.512294 1.158049 2.680027
v 2.486168 1.150175 2.685899
v 2.480297 1.115138 2.680027
v 2.480297 1.158049 2.712024
vn -0.0000 -0.0000 -1.0000
vn -0.0000 -1.0000 -0.0000
vn 1.0000 -0.0000 -0.0000
vn -1.0000 -0.0000 -0.0000
vn 0.4018 0.8479 0.3459
vn 0.2906 0.2824 0.9142
vn 0.9025 0.2139 0.3738
vn -0.4550 -0.8192 0.3492
vn -0.2906 -0.2824 0.9142
vn -0.9025 -0.2139 0.3738
vn -0.3492 0.8192 0.4550
vn -0.9142 0.2824 0.2906
vn -0.3738 0.2139 0.9025
vn -0.4550 0.8192 -0.3492
vn -0.2906 0.2824 -0.9142
vn -0.9025 0.2139 -0.3738
vn 0.9555 0.2951 -0.0000
vn 0.4386 0.8987 -0.0000
vn 0.9239 -0.0000 0.3827
vn 0.3827 -0.0000 0.9239
vn -0.9555 -0.2951 -0.0000
vn -0.4856 -0.8742 -0.0000
vn -0.4856 0.8742 -0.0000
vn -0.9555 0.2951 -0.0000
vn -0.3827 -0.0000 0.9239
vn -0.9239 -0.0000 0.3827
vn -0.9239 -0.0000 -0.3827
vn -0.3827 -0.0000 -0.9239
vn -0.0000 -0.2951 0.9555
vn -0.0153 -0.8733 0.4869
vn -0.0000 -0.2951 -0.9555
vn -0.0000 -0.8742 -0.4856
vn -0.0000 0.8742 -0.4856
vn -0.0000 0.2951 -0.9555
vn 0.3462 0.8458 0.4060
vn 0.3738 0.2139 0.9025
vn 0.9142 0.2824 0.2906
vn -0.3492 -0.8192 0.4550
vn -0.3738 -0.2139 0.9025
vn -0.9142 -0.2824 0.2906
vn -0.4550 0.8192 0.3492
vn -0.9025 0.2139 0.3738
vn -0.2906 0.2824 0.9142
vn -0.3492 0.8192 -0.4550
vn -0.3738 0.2139 -0.9025
vn -0.9142 0.2824 -0.2906
vn -0.0000 -0.8742 0.4856
vn 0.0149 -0.8811 -0.4728
vt 0.932275 0.000000
vt 0.067725 0.000000
vt 0.000000 1.000000
vt 0.932275 1.000000
vt 0.932275 1.000000
vt 1.000000 0.051976
vt 1.000000 0.948024
vt 0.932275 0.051976
vt 0.000000 0.051976
vt 0.067725 0.948024
vt 0.067725 0.051976
vt 0.990459 0.007323
vt 1.000000 0.000000
vt 0.932275 0.000000
vt 0.009541 0.007323
vt 0.000000 0.000000
vt 0.990459 0.992677
vt 1.000000 0.948024
vt 1.000000 1.000000
vt 0.932275 0.948024
vt 0.932275 1.000000
vt 1.000000 0.992388
vt 1.000000 0.948024
vt 0.009918 0.000000
vt 0.009918 0.992388
vt 0.067725 0.000000
vt 0.000000 1.000000
vt 0.000000 0.051976
vt 1.000000 0.051976
vt 0.067725 0.000000
s 0
g off
g Grid.009_blue
usemtl blue
f 40/29/41 50/30/41 36/30/41
f 35/31/41 67/32/41 47/33/41
f 39/34/42 66/35/42 59/34/42
f 35/31/43 41/36/43 37/37/43
f 60/36/44 56/38/44 51/39/44
f 39/34/45 43/40/45 45/34/45
f 40/29/46 43/40/46 42/41/46
f 41/36/47 43/40/47 44/42/47
f 49/37/48 53/43/48 55/37/48
f 50/30/49 53/43/49 52/44/49
f 51/39/50 53/43/50 54/30/50
f 59/34/51 63/40/51 65/41/51
f 60/36/52 63/40/52 62/34/52
f 61/29/53 63/40/53 64/42/53
f 66/35/54 70/45/54 72/46/54
f 67/32/55 70/45/55 69/47/55
f 68/48/56 70/45/56 71/49/56
f 41/36/57 48/50/57 45/34/57
f 45/34/58 46/51/58 39/34/58
f 41/36/59 38/52/59 37/37/59
f 44/42/60 36/30/60 38/52/60
f 56/38/61 55/37/61 51/39/61
f 58/53/62 49/37/62 55/37/62
f 66/35/63 62/34/63 59/34/63
f 72/51/64 60/36/64 62/34/64
f 61/29/65 54/54/65 50/30/65
f 64/42/66 51/39/66 54/54/66
f 56/38/67 71/49/67 58/53/67
f 58/53/68 67/32/68 57/55/68
f 47/33/69 69/47/69 48/50/69
f 48/50/70 66/35/70 46/51/70
f 40/29/71 65/41/71 61/29/71
f 42/41/72 59/34/72 65/41/72
f 49/37/73 38/52/73 52/44/73
f 38/52/74 50/30/74 52/44/74
f 37/56/42 57/31/42 35/31/42
f 40/29/41 61/29/41 50/30/41
f 35/31/41 57/55/41 67/32/41
f 39/34/42 46/51/42 66/35/42
f 35/31/43 47/49/43 41/36/43
f 60/36/44 68/48/44 56/38/44
f 39/34/75 42/41/75 43/40/75
f 40/29/76 44/42/76 43/40/76
f 41/36/77 45/57/77 43/40/77
f 49/37/78 52/44/78 53/43/78
f 50/30/79 54/58/79 53/43/79
f 51/39/80 55/56/80 53/43/80
f 59/34/81 62/57/81 63/40/81
f 60/36/82 64/42/82 63/40/82
f 61/29/83 65/41/83 63/40/83
f 66/35/84 69/47/84 70/45/84
f 67/32/85 71/49/85 70/45/85
f 68/48/86 72/51/86 70/45/86
f 41/36/57 47/49/57 48/50/57
f 45/34/58 48/50/58 46/51/58
f 41/36/59 44/42/59 38/52/59
f 44/42/60 40/29/60 36/30/60
f 56/38/61 58/53/61 55/37/61
f 58/53/62 57/31/62 49/37/62
f 66/35/63 72/51/63 62/34/63
f 72/51/64 68/48/64 60/36/64
f 61/29/65 64/42/65 54/54/65
f 64/42/66 60/36/66 51/39/66
f 56/38/67 68/48/67 71/49/67
f 58/53/68 71/49/68 67/32/68
f 47/33/74 67/32/74 69/47/74
f 48/50/87 69/47/87 66/35/87
f 40/29/71 42/41/71 65/41/71
f 42/41/88 39/34/88 59/34/88
f 49/37/87 37/56/87 38/52/87
f 38/52/74 36/30/74 50/30/74
f 37/56/42 49/37/42 57/31/42
