# Blender 4.3.2
# www.blender.org
mtllib room_escape_new_menkuang.mtl
g 立方体.012_Mesh
v 3.685365 3.681646 0.594031
v 3.343455 3.681717 0.594031
v 3.685365 3.664055 0.783429
v 3.343455 3.664126 0.783429
v 3.685365 3.664055 0.404632
v 3.343455 3.664126 0.404632
v 3.685365 3.611959 0.965549
v 3.343455 3.612029 0.965549
v 3.685365 3.611958 0.222511
v 3.343455 3.612029 0.222511
v 3.685365 3.527358 1.133393
v 3.343455 3.527428 1.133393
v 3.685365 3.527357 0.054667
v 3.343455 3.527428 0.054667
v 3.685365 3.413504 1.280509
v 3.343455 3.413575 1.280509
v 3.685365 3.413503 -0.092449
v 3.343455 3.413574 -0.092449
v 3.685365 3.274773 1.401245
v 3.343455 3.274844 1.401245
v 3.685365 3.274772 -0.213184
v 3.343455 3.274843 -0.213184
v 3.685365 3.116495 -0.302898
v 3.343455 3.116566 -0.302898
v 3.685365 3.116496 1.490959
v 3.343455 3.116566 1.490959
v 3.685365 2.944754 -0.358143
v 3.343455 2.944825 -0.358143
v 3.685365 2.944755 1.546205
v 3.343455 2.944825 1.546205
v 3.685365 2.766150 1.564859
v 3.343455 2.766221 1.564859
v 3.685365 2.766149 -0.376798
v 3.343455 2.766220 -0.376798
v 3.685365 0.011548 1.551121
v 3.343455 0.011548 1.551120
v 3.685365 0.011548 -0.363058
v 3.343455 0.011548 -0.363058
v 3.685365 1.388849 1.557990
v 3.343455 1.388884 1.557990
v 3.685365 0.726685 1.554687
v 3.343455 0.726703 1.554687
v 3.514410 0.011548 1.551121
v 3.514410 0.011548 -0.363058
v 3.428933 0.011548 1.551120
v 3.428933 0.011548 -0.363058
v 3.685396 3.903522 0.594031
v 3.685396 3.884131 0.802589
v 3.343487 3.903593 0.594031
v 3.343486 3.884202 0.802588
v 3.685396 3.884131 0.385471
v 3.343486 3.884202 0.385472
v 3.343485 3.826396 0.183632
v 3.685396 3.826325 1.004429
v 3.343485 3.826396 1.004429
v 3.685396 3.826325 0.183631
v 3.685394 3.731114 1.193050
v 3.343484 3.731185 1.193049
v 3.685394 3.731113 -0.004989
v 3.343484 3.731184 -0.004989
v 3.685392 3.599895 1.362273
v 3.343482 3.599967 1.362272
v 3.685391 3.599894 -0.174213
v 3.343482 3.599966 -0.174211
v 3.343478 3.434271 -0.318007
v 3.685388 3.434199 1.506070
v 3.343478 3.434272 1.506068
v 3.685388 3.434198 -0.318009
v 3.343472 3.236079 -0.429885
v 3.685382 3.236005 1.617948
v 3.685382 3.236003 -0.429887
v 3.343472 3.236080 1.617946
v 3.685374 3.009772 1.690309
v 3.343464 3.009849 1.690308
v 3.343464 3.009847 -0.502247
v 3.685374 3.009770 -0.502248
v 3.343457 2.782318 -0.527121
v 3.685368 2.782244 1.715183
v 3.343457 2.782319 1.715183
v 3.685368 2.782243 -0.527121
v 3.685365 0.725056 1.705404
v 3.685365 0.009919 1.701838
v 3.428932 0.009919 1.701837
v 3.343455 0.009919 1.701837
v 3.343455 0.725074 1.705404
v 3.685365 0.009919 -0.513775
v 3.343455 0.009919 -0.513775
v 3.428932 0.009919 -0.513775
v 3.514433 3.434235 1.506069
v 3.514412 2.782282 1.715183
v 3.514439 3.731149 -0.004989
v 3.514413 2.782280 -0.527121
v 3.514441 3.903558 0.594031
v 3.514439 3.731150 1.193049
v 3.514427 3.236042 1.617947
v 3.514433 3.434234 -0.318008
v 3.514441 3.826360 0.183631
v 3.514441 3.884167 0.802589
v 3.514436 3.599931 1.362273
v 3.514419 3.009809 -0.502247
v 3.514436 3.599930 -0.174212
v 3.514419 3.009810 1.690309
v 3.514441 3.826361 1.004429
v 3.514441 3.884166 0.385472
v 3.514427 3.236041 -0.429886
v 3.685365 1.387220 1.708707
v 3.343455 1.387255 1.708707
v 3.428932 1.387246 1.708707
v 3.428932 0.725070 1.705404
v 3.514410 0.009919 1.701837
v 3.514410 0.009919 -0.513775
v 3.428955 3.434253 1.506069
v 3.428935 2.782299 1.715183
v 3.428962 3.731166 -0.004989
v 3.428935 2.782298 -0.527121
v 3.428964 3.903575 0.594031
v 3.428962 3.731167 1.193049
v 3.428950 3.236060 1.617947
v 3.428955 3.434252 -0.318008
v 3.428963 3.826378 0.183631
v 3.428964 3.884184 0.802589
v 3.428959 3.599948 1.362273
v 3.428942 3.009827 -0.502247
v 3.428959 3.599947 -0.174212
v 3.428942 3.009828 1.690309
v 3.428963 3.826379 1.004429
v 3.428964 3.884184 0.385472
v 3.428950 3.236058 -0.429886
v 3.514410 1.387238 1.708707
v 3.514410 0.725065 1.705404
v 3.685349 3.571207 0.594031
v 3.685350 3.554512 0.773892
v 3.343440 3.571277 0.594031
v 3.343440 3.554582 0.773892
v 3.685350 3.554511 0.414169
v 3.343440 3.554582 0.414169
v 3.343440 3.505327 0.241863
v 3.685350 3.505257 0.946197
v 3.343440 3.505327 0.946197
v 3.685350 3.505256 0.241863
v 3.685351 3.425937 1.103699
v 3.343441 3.426008 1.103699
v 3.685351 3.425937 0.084362
v 3.343441 3.426007 0.084361
v 3.685352 3.320728 1.239811
v 3.343442 3.320798 1.239812
v 3.685352 3.320727 -0.051750
v 3.343442 3.320797 -0.051751
v 3.343444 3.195487 -0.161007
v 3.685354 3.195418 1.349068
v 3.343444 3.195488 1.349068
v 3.685354 3.195417 -0.161007
v 3.343447 3.057077 -0.239689
v 3.685357 3.057010 1.427750
v 3.685357 3.057009 -0.239689
v 3.343447 3.057078 1.427751
v 3.685360 2.912392 1.474476
v 3.343451 2.912460 1.474477
v 3.343451 2.912459 -0.286416
v 3.685360 2.912392 -0.286415
v 3.343454 2.758207 -0.301974
v 3.685364 2.758139 1.490035
v 3.343454 2.758208 1.490035
v 3.685364 2.758139 -0.301973
v 3.685365 0.727496 1.479668
v 3.685365 0.012359 1.476101
v 3.428933 0.012359 1.476101
v 3.343455 0.012359 1.476101
v 3.343455 0.727514 1.479667
v 3.685365 0.012359 -0.288039
v 3.343455 0.012359 -0.288039
v 3.428933 0.012359 -0.288039
v 3.514399 3.195453 1.349068
v 3.514409 2.758173 1.490035
v 3.514396 3.425972 0.084362
v 3.514409 2.758173 -0.301974
v 3.514395 3.571242 0.594031
v 3.514396 3.425973 1.103699
v 3.514402 3.057044 1.427750
v 3.514399 3.195452 -0.161007
v 3.514395 3.505291 0.241863
v 3.514395 3.554547 0.773892
v 3.514397 3.320763 1.239811
v 3.514405 2.912426 -0.286415
v 3.514397 3.320762 -0.051751
v 3.514405 2.912426 1.474477
v 3.514395 3.505292 0.946197
v 3.514395 3.554547 0.414169
v 3.514402 3.057043 -0.239689
v 3.685365 1.389660 1.482970
v 3.343455 1.389695 1.482970
v 3.428933 1.389686 1.482970
v 3.428933 0.727510 1.479668
v 3.514410 0.012359 1.476101
v 3.514410 0.012359 -0.288039
v 3.428921 3.195471 1.349068
v 3.428931 2.758191 1.490035
v 3.428918 3.425990 0.084362
v 3.428931 2.758191 -0.301974
v 3.428917 3.571259 0.594031
v 3.428918 3.425990 1.103699
v 3.428924 3.057061 1.427750
v 3.428921 3.195470 -0.161007
v 3.428917 3.505309 0.241863
v 3.428917 3.554564 0.773892
v 3.428920 3.320781 1.239811
v 3.428928 2.912443 -0.286415
v 3.428920 3.320780 -0.051751
v 3.428928 2.912444 1.474477
v 3.428917 3.505310 0.946197
v 3.428917 3.554564 0.414169
v 3.428924 3.057061 -0.239689
v 3.514410 1.389678 1.482970
v 3.514410 0.727505 1.479668
vn 1.0000 -0.0001 0.0001
vn 1.0000 -0.0000 -0.0000
vn -1.0000 -0.0000 -0.0000
vn -1.0000 0.0001 -0.0000
vn 1.0000 -0.0001 -0.0000
vn -1.0000 0.0001 -0.0001
vn -1.0000 -0.0000 -0.0001
vn 1.0000 -0.0001 -0.0001
vn 1.0000 -0.0000 0.0001
vn -1.0000 0.0001 0.0001
vn 1.0000 -0.0000 -0.0001
vn -1.0000 -0.0000 0.0001
vn -0.0000 0.9999 -0.0108
vn -0.0000 0.9999 0.0108
vn -0.0001 -0.4916 0.8708
vn -0.0001 -0.3047 0.9525
vn -0.0002 -0.9614 0.2753
vn -0.0001 -0.6554 0.7553
vn -0.0002 -0.8927 0.4506
vn -0.0001 -0.6554 -0.7553
vn -0.0000 0.0050 -1.0000
vn -0.0002 -0.8927 -0.4506
vn -0.0000 -0.1087 0.9941
vn -0.0000 -0.1087 -0.9941
vn -0.0001 -0.4916 -0.8708
vn -0.0002 -0.7903 -0.6128
vn -0.0000 0.0048 1.0000
vn -0.0002 -0.9957 -0.0926
vn -0.0001 -0.3047 -0.9525
vn -0.0002 -0.9957 0.0926
vn -0.0002 -0.9614 -0.2753
vn -0.0002 -0.7903 0.6128
vn -0.0000 0.0046 -1.0000
vn 0.0001 0.4942 -0.8693
vn 0.0001 0.3075 -0.9516
vn 0.0002 0.9615 -0.2749
vn 0.0001 0.6572 -0.7537
vn 0.0002 0.8931 -0.4498
vn 0.0001 0.6572 0.7537
vn -0.0000 -0.0050 1.0000
vn 0.0002 0.8931 0.4498
vn -0.0000 0.1004 -0.9950
vn -0.0000 0.1004 0.9950
vn 0.0001 0.4942 0.8693
vn 0.0002 0.7912 0.6116
vn -0.0000 -0.0051 -1.0000
vn 0.0002 0.9957 0.0924
vn 0.0001 0.3075 0.9516
vn 0.0002 0.9957 -0.0924
vn 0.0002 0.9615 0.2748
vn 0.0002 0.7912 -0.6116
vn -0.0000 -0.0052 1.0000
vn 0.0002 0.9615 -0.2748
vn 0.0002 0.9615 0.2749
vn -0.0001 -0.3046 0.9525
vn -0.0001 -0.3046 -0.9525
vt 0.000000 0.000000
s 0
g off
g 立方体.012_wooden
usemtl wooden
f 18/1/1 149/1/1 22/1/1
f 40/1/2 163/1/2 32/1/2
f 31/1/3 157/1/3 162/1/3
f 1/1/4 135/1/4 131/1/4
f 14/1/1 148/1/1 18/1/1
f 39/1/3 162/1/3 190/1/3
f 34/1/2 159/1/2 161/1/2
f 2/1/5 134/1/5 133/1/5
f 13/1/6 147/1/6 143/1/6
f 23/1/7 160/1/7 155/1/7
f 1/1/4 132/1/4 3/1/4
f 12/1/8 146/1/8 142/1/8
f 24/1/9 159/1/9 28/1/9
f 11/1/10 145/1/10 15/1/10
f 26/1/11 158/1/11 156/1/11
f 10/1/1 144/1/1 14/1/1
f 25/1/12 157/1/12 29/1/12
f 46/1/13 171/1/13 172/1/13
f 9/1/6 143/1/6 140/1/6
f 20/1/8 156/1/8 151/1/8
f 38/1/2 161/1/2 171/1/2
f 44/1/13 172/1/13 195/1/13
f 8/1/8 142/1/8 139/1/8
f 21/1/6 155/1/6 152/1/6
f 37/1/13 195/1/13 170/1/13
f 37/1/3 164/1/3 33/1/3
f 43/1/14 167/1/14 45/1/14
f 7/1/10 141/1/10 11/1/10
f 19/1/12 154/1/12 25/1/12
f 35/1/14 194/1/14 43/1/14
f 36/1/2 169/1/2 42/1/2
f 5/1/4 140/1/4 135/1/4
f 22/1/9 153/1/9 24/1/9
f 45/1/14 168/1/14 36/1/14
f 4/1/5 139/1/5 134/1/5
f 17/1/6 152/1/6 147/1/6
f 40/1/2 169/1/2 191/1/2
f 41/1/3 166/1/3 35/1/3
f 3/1/4 138/1/4 7/1/4
f 16/1/8 151/1/8 146/1/8
f 39/1/3 165/1/3 41/1/3
f 33/1/7 160/1/7 27/1/7
f 6/1/5 137/1/5 10/1/5
f 15/1/10 150/1/10 19/1/10
f 32/1/11 158/1/11 30/1/11
f 2/1/5 136/1/5 6/1/5
f 105/1/15 68/1/15 96/1/15
f 100/1/16 71/1/16 105/1/16
f 97/1/17 51/1/17 104/1/17
f 96/1/18 63/1/18 101/1/18
f 91/1/19 56/1/19 97/1/19
f 61/1/20 89/1/20 99/1/20
f 81/1/21 110/1/21 130/1/21
f 54/1/22 94/1/22 103/1/22
f 92/1/23 76/1/23 100/1/23
f 73/1/24 90/1/24 102/1/24
f 66/1/25 95/1/25 89/1/25
f 57/1/26 99/1/26 94/1/26
f 115/1/27 87/1/27 88/1/27
f 47/1/28 98/1/28 93/1/28
f 70/1/29 102/1/29 95/1/29
f 104/1/30 47/1/30 93/1/30
f 48/1/31 103/1/31 98/1/31
f 101/1/32 59/1/32 91/1/32
f 78/1/33 129/1/33 90/1/33
f 106/1/21 130/1/21 129/1/21
f 129/1/21 109/1/21 108/1/21
f 90/1/33 108/1/33 113/1/33
f 124/1/32 91/1/32 114/1/32
f 98/1/31 126/1/31 121/1/31
f 127/1/30 93/1/30 116/1/30
f 95/1/29 125/1/29 118/1/29
f 93/1/28 121/1/28 116/1/28
f 80/1/27 111/1/27 86/1/27
f 94/1/26 122/1/26 117/1/26
f 89/1/25 118/1/25 112/1/25
f 102/1/24 113/1/24 125/1/24
f 115/1/23 100/1/23 123/1/23
f 103/1/22 117/1/22 126/1/22
f 130/1/21 83/1/21 109/1/21
f 99/1/20 112/1/20 122/1/20
f 114/1/19 97/1/19 120/1/19
f 119/1/18 101/1/18 124/1/18
f 120/1/17 104/1/17 127/1/17
f 100/1/16 128/1/16 123/1/16
f 128/1/15 96/1/15 119/1/15
f 69/1/15 119/1/15 65/1/15
f 75/1/16 128/1/16 69/1/16
f 53/1/17 127/1/17 52/1/17
f 65/1/18 124/1/18 64/1/18
f 60/1/19 120/1/19 53/1/19
f 122/1/20 67/1/20 62/1/20
f 109/1/21 84/1/21 85/1/21
f 126/1/22 58/1/22 55/1/22
f 77/1/23 123/1/23 75/1/23
f 125/1/24 79/1/24 74/1/24
f 112/1/25 72/1/25 67/1/25
f 117/1/26 62/1/26 58/1/26
f 116/1/28 50/1/28 49/1/28
f 118/1/29 74/1/29 72/1/29
f 52/1/30 116/1/30 49/1/30
f 121/1/31 55/1/31 50/1/31
f 64/1/32 114/1/32 60/1/32
f 113/1/33 107/1/33 79/1/33
f 108/1/21 85/1/21 107/1/21
f 92/1/27 88/1/27 111/1/27
f 27/1/3 71/1/3 76/1/3
f 17/1/6 59/1/6 63/1/6
f 4/1/5 49/1/5 50/1/5
f 28/1/2 77/1/2 75/1/2
f 31/1/3 106/1/3 78/1/3
f 18/1/1 60/1/1 14/1/1
f 5/1/4 47/1/4 51/1/4
f 29/1/3 78/1/3 73/1/3
f 32/1/2 107/1/2 40/1/2
f 22/1/1 64/1/1 18/1/1
f 6/1/5 49/1/5 2/1/5
f 30/1/2 79/1/2 32/1/2
f 19/1/10 61/1/10 15/1/10
f 10/1/5 52/1/5 6/1/5
f 27/1/3 80/1/3 33/1/3
f 41/1/3 106/1/3 39/1/3
f 20/1/8 62/1/8 67/1/8
f 7/1/4 48/1/4 3/1/4
f 35/1/3 81/1/3 41/1/3
f 40/1/2 85/1/2 42/1/2
f 21/1/6 63/1/6 68/1/6
f 8/1/5 50/1/5 55/1/5
f 36/1/14 83/1/14 45/1/14
f 24/1/1 65/1/1 22/1/1
f 9/1/4 51/1/4 56/1/4
f 42/1/2 84/1/2 36/1/2
f 43/1/14 82/1/14 35/1/14
f 25/1/10 66/1/10 19/1/10
f 11/1/10 54/1/10 7/1/10
f 45/1/14 110/1/14 43/1/14
f 33/1/3 86/1/3 37/1/3
f 44/1/13 86/1/13 111/1/13
f 23/1/6 68/1/6 71/1/6
f 12/1/8 55/1/8 58/1/8
f 46/1/13 111/1/13 88/1/13
f 34/1/2 87/1/2 77/1/2
f 26/1/8 67/1/8 72/1/8
f 13/1/6 56/1/6 59/1/6
f 38/1/13 88/1/13 87/1/13
f 29/1/12 70/1/12 25/1/12
f 14/1/1 53/1/1 10/1/1
f 30/1/2 72/1/2 74/1/2
f 15/1/10 57/1/10 11/1/10
f 28/1/9 69/1/9 24/1/9
f 16/1/8 58/1/8 62/1/8
f 3/1/4 47/1/4 1/1/4
f 189/1/34 152/1/34 155/1/34
f 184/1/35 155/1/35 160/1/35
f 181/1/36 135/1/36 140/1/36
f 180/1/37 147/1/37 152/1/37
f 175/1/38 140/1/38 143/1/38
f 173/1/39 145/1/39 183/1/39
f 194/1/40 165/1/40 214/1/40
f 178/1/41 138/1/41 187/1/41
f 176/1/42 160/1/42 164/1/42
f 174/1/43 157/1/43 186/1/43
f 179/1/44 150/1/44 173/1/44
f 183/1/45 141/1/45 178/1/45
f 199/1/46 171/1/46 161/1/46
f 182/1/47 131/1/47 177/1/47
f 186/1/48 154/1/48 179/1/48
f 188/1/49 131/1/49 135/1/49
f 187/1/50 132/1/50 182/1/50
f 185/1/51 143/1/51 147/1/51
f 213/1/52 162/1/52 174/1/52
f 214/1/40 190/1/40 213/1/40
f 193/1/40 213/1/40 192/1/40
f 192/1/52 174/1/52 197/1/52
f 208/1/51 175/1/51 185/1/51
f 210/1/50 182/1/50 205/1/50
f 211/1/49 177/1/49 188/1/49
f 209/1/48 179/1/48 202/1/48
f 205/1/47 177/1/47 200/1/47
f 164/1/46 195/1/46 176/1/46
f 206/1/45 178/1/45 201/1/45
f 202/1/44 173/1/44 196/1/44
f 197/1/43 186/1/43 209/1/43
f 199/1/42 184/1/42 176/1/42
f 201/1/41 187/1/41 210/1/41
f 167/1/40 214/1/40 193/1/40
f 196/1/39 183/1/39 206/1/39
f 198/1/38 181/1/38 175/1/38
f 203/1/37 185/1/37 180/1/37
f 204/1/53 188/1/53 181/1/53
f 207/1/35 189/1/35 184/1/35
f 212/1/34 180/1/34 189/1/34
f 153/1/34 203/1/34 212/1/34
f 159/1/35 212/1/35 207/1/35
f 137/1/53 211/1/53 204/1/53
f 149/1/37 208/1/37 203/1/37
f 144/1/38 204/1/38 198/1/38
f 151/1/39 206/1/39 146/1/39
f 168/1/40 193/1/40 169/1/40
f 142/1/41 210/1/41 139/1/41
f 161/1/42 207/1/42 199/1/42
f 163/1/43 209/1/43 158/1/43
f 156/1/44 196/1/44 151/1/44
f 146/1/45 201/1/45 142/1/45
f 134/1/47 200/1/47 133/1/47
f 158/1/48 202/1/48 156/1/48
f 136/1/49 200/1/49 211/1/49
f 139/1/54 205/1/54 134/1/54
f 148/1/51 198/1/51 208/1/51
f 191/1/52 197/1/52 163/1/52
f 169/1/40 192/1/40 191/1/40
f 176/1/46 172/1/46 199/1/46
f 18/1/1 148/1/1 149/1/1
f 40/1/2 191/1/2 163/1/2
f 31/1/12 29/1/12 157/1/12
f 1/1/4 5/1/4 135/1/4
f 14/1/1 144/1/1 148/1/1
f 39/1/3 31/1/3 162/1/3
f 34/1/9 28/1/9 159/1/9
f 2/1/5 4/1/5 134/1/5
f 13/1/6 17/1/6 147/1/6
f 23/1/7 27/1/7 160/1/7
f 1/1/4 131/1/4 132/1/4
f 12/1/8 16/1/8 146/1/8
f 24/1/9 153/1/9 159/1/9
f 11/1/10 141/1/10 145/1/10
f 26/1/11 30/1/11 158/1/11
f 10/1/1 137/1/1 144/1/1
f 25/1/12 154/1/12 157/1/12
f 46/1/13 38/1/13 171/1/13
f 9/1/6 13/1/6 143/1/6
f 20/1/11 26/1/11 156/1/11
f 38/1/2 34/1/2 161/1/2
f 44/1/13 46/1/13 172/1/13
f 8/1/8 12/1/8 142/1/8
f 21/1/7 23/1/7 155/1/7
f 37/1/13 44/1/13 195/1/13
f 37/1/3 170/1/3 164/1/3
f 43/1/14 194/1/14 167/1/14
f 7/1/10 138/1/10 141/1/10
f 19/1/10 150/1/10 154/1/10
f 35/1/14 166/1/14 194/1/14
f 36/1/2 168/1/2 169/1/2
f 5/1/4 9/1/4 140/1/4
f 22/1/1 149/1/1 153/1/1
f 45/1/14 167/1/14 168/1/14
f 4/1/5 8/1/5 139/1/5
f 17/1/6 21/1/6 152/1/6
f 40/1/2 42/1/2 169/1/2
f 41/1/3 165/1/3 166/1/3
f 3/1/4 132/1/4 138/1/4
f 16/1/8 20/1/8 151/1/8
f 39/1/3 190/1/3 165/1/3
f 33/1/3 164/1/3 160/1/3
f 6/1/5 136/1/5 137/1/5
f 15/1/10 145/1/10 150/1/10
f 32/1/2 163/1/2 158/1/2
f 2/1/5 133/1/5 136/1/5
f 105/1/15 71/1/15 68/1/15
f 100/1/55 76/1/55 71/1/55
f 97/1/17 56/1/17 51/1/17
f 96/1/18 68/1/18 63/1/18
f 91/1/19 59/1/19 56/1/19
f 61/1/20 66/1/20 89/1/20
f 81/1/21 82/1/21 110/1/21
f 54/1/22 57/1/22 94/1/22
f 92/1/23 80/1/23 76/1/23
f 73/1/24 78/1/24 90/1/24
f 66/1/25 70/1/25 95/1/25
f 57/1/26 61/1/26 99/1/26
f 115/1/27 77/1/27 87/1/27
f 47/1/28 48/1/28 98/1/28
f 70/1/56 73/1/56 102/1/56
f 104/1/30 51/1/30 47/1/30
f 48/1/31 54/1/31 103/1/31
f 101/1/32 63/1/32 59/1/32
f 78/1/33 106/1/33 129/1/33
f 106/1/21 81/1/21 130/1/21
f 129/1/21 130/1/21 109/1/21
f 90/1/33 129/1/33 108/1/33
f 124/1/32 101/1/32 91/1/32
f 98/1/31 103/1/31 126/1/31
f 127/1/30 104/1/30 93/1/30
f 95/1/29 102/1/29 125/1/29
f 93/1/28 98/1/28 121/1/28
f 80/1/27 92/1/27 111/1/27
f 94/1/26 99/1/26 122/1/26
f 89/1/25 95/1/25 118/1/25
f 102/1/24 90/1/24 113/1/24
f 115/1/23 92/1/23 100/1/23
f 103/1/22 94/1/22 117/1/22
f 130/1/21 110/1/21 83/1/21
f 99/1/20 89/1/20 112/1/20
f 114/1/19 91/1/19 97/1/19
f 119/1/18 96/1/18 101/1/18
f 120/1/17 97/1/17 104/1/17
f 100/1/16 105/1/16 128/1/16
f 128/1/15 105/1/15 96/1/15
f 69/1/15 128/1/15 119/1/15
f 75/1/16 123/1/16 128/1/16
f 53/1/17 120/1/17 127/1/17
f 65/1/18 119/1/18 124/1/18
f 60/1/19 114/1/19 120/1/19
f 122/1/20 112/1/20 67/1/20
f 109/1/21 83/1/21 84/1/21
f 126/1/22 117/1/22 58/1/22
f 77/1/23 115/1/23 123/1/23
f 125/1/24 113/1/24 79/1/24
f 112/1/25 118/1/25 72/1/25
f 117/1/26 122/1/26 62/1/26
f 116/1/28 121/1/28 50/1/28
f 118/1/29 125/1/29 74/1/29
f 52/1/30 127/1/30 116/1/30
f 121/1/31 126/1/31 55/1/31
f 64/1/32 124/1/32 114/1/32
f 113/1/33 108/1/33 107/1/33
f 108/1/21 109/1/21 85/1/21
f 92/1/27 115/1/27 88/1/27
f 27/1/7 23/1/7 71/1/7
f 17/1/6 13/1/6 59/1/6
f 4/1/5 2/1/5 49/1/5
f 28/1/2 34/1/2 77/1/2
f 31/1/3 39/1/3 106/1/3
f 18/1/1 64/1/1 60/1/1
f 5/1/4 1/1/4 47/1/4
f 29/1/3 31/1/3 78/1/3
f 32/1/2 79/1/2 107/1/2
f 22/1/1 65/1/1 64/1/1
f 6/1/5 52/1/5 49/1/5
f 30/1/2 74/1/2 79/1/2
f 19/1/10 66/1/10 61/1/10
f 10/1/5 53/1/5 52/1/5
f 27/1/3 76/1/3 80/1/3
f 41/1/3 81/1/3 106/1/3
f 20/1/8 16/1/8 62/1/8
f 7/1/4 54/1/4 48/1/4
f 35/1/3 82/1/3 81/1/3
f 40/1/2 107/1/2 85/1/2
f 21/1/6 17/1/6 63/1/6
f 8/1/5 4/1/5 50/1/5
f 36/1/14 84/1/14 83/1/14
f 24/1/1 69/1/1 65/1/1
f 9/1/4 5/1/4 51/1/4
f 42/1/2 85/1/2 84/1/2
f 43/1/14 110/1/14 82/1/14
f 25/1/10 70/1/10 66/1/10
f 11/1/10 57/1/10 54/1/10
f 45/1/14 83/1/14 110/1/14
f 33/1/3 80/1/3 86/1/3
f 44/1/13 37/1/13 86/1/13
f 23/1/6 21/1/6 68/1/6
f 12/1/8 8/1/8 55/1/8
f 46/1/13 44/1/13 111/1/13
f 34/1/2 38/1/2 87/1/2
f 26/1/8 20/1/8 67/1/8
f 13/1/6 9/1/6 56/1/6
f 38/1/13 46/1/13 88/1/13
f 29/1/3 73/1/3 70/1/3
f 14/1/1 60/1/1 53/1/1
f 30/1/11 26/1/11 72/1/11
f 15/1/10 61/1/10 57/1/10
f 28/1/2 75/1/2 69/1/2
f 16/1/8 12/1/8 58/1/8
f 3/1/4 48/1/4 47/1/4
f 189/1/34 180/1/34 152/1/34
f 184/1/35 189/1/35 155/1/35
f 181/1/53 188/1/53 135/1/53
f 180/1/37 185/1/37 147/1/37
f 175/1/38 181/1/38 140/1/38
f 173/1/39 150/1/39 145/1/39
f 194/1/40 166/1/40 165/1/40
f 178/1/41 141/1/41 138/1/41
f 176/1/42 184/1/42 160/1/42
f 174/1/43 162/1/43 157/1/43
f 179/1/44 154/1/44 150/1/44
f 183/1/45 145/1/45 141/1/45
f 199/1/46 172/1/46 171/1/46
f 182/1/47 132/1/47 131/1/47
f 186/1/48 157/1/48 154/1/48
f 188/1/49 177/1/49 131/1/49
f 187/1/54 138/1/54 132/1/54
f 185/1/51 175/1/51 143/1/51
f 213/1/52 190/1/52 162/1/52
f 214/1/40 165/1/40 190/1/40
f 193/1/40 214/1/40 213/1/40
f 192/1/52 213/1/52 174/1/52
f 208/1/51 198/1/51 175/1/51
f 210/1/50 187/1/50 182/1/50
f 211/1/49 200/1/49 177/1/49
f 209/1/48 186/1/48 179/1/48
f 205/1/47 182/1/47 177/1/47
f 164/1/46 170/1/46 195/1/46
f 206/1/45 183/1/45 178/1/45
f 202/1/44 179/1/44 173/1/44
f 197/1/43 174/1/43 186/1/43
f 199/1/42 207/1/42 184/1/42
f 201/1/41 178/1/41 187/1/41
f 167/1/40 194/1/40 214/1/40
f 196/1/39 173/1/39 183/1/39
f 198/1/38 204/1/38 181/1/38
f 203/1/37 208/1/37 185/1/37
f 204/1/53 211/1/53 188/1/53
f 207/1/35 212/1/35 189/1/35
f 212/1/34 203/1/34 180/1/34
f 153/1/34 149/1/34 203/1/34
f 159/1/35 153/1/35 212/1/35
f 137/1/36 136/1/36 211/1/36
f 149/1/37 148/1/37 208/1/37
f 144/1/38 137/1/38 204/1/38
f 151/1/39 196/1/39 206/1/39
f 168/1/40 167/1/40 193/1/40
f 142/1/41 201/1/41 210/1/41
f 161/1/42 159/1/42 207/1/42
f 163/1/43 197/1/43 209/1/43
f 156/1/44 202/1/44 196/1/44
f 146/1/45 206/1/45 201/1/45
f 134/1/47 205/1/47 200/1/47
f 158/1/48 209/1/48 202/1/48
f 136/1/49 133/1/49 200/1/49
f 139/1/50 210/1/50 205/1/50
f 148/1/51 144/1/51 198/1/51
f 191/1/52 192/1/52 197/1/52
f 169/1/40 193/1/40 192/1/40
f 176/1/46 195/1/46 172/1/46
